<svg width="36" height="32" viewBox="0 0 36 32" fill="none" xmlns="http://www.w3.org/2000/svg">
<path d="M24.287 5.05412L20.8582 0.29235C20.7261 0.108834 20.5138 6.10352e-05 20.2877 6.10352e-05C20.0615 6.10352e-05 19.8492 0.108834 19.7171 0.29235L16.2884 5.05412C16.2022 5.17379 16.1558 5.31751 16.1558 5.46495V5.57724V28.3946C16.1558 29.8454 17.3362 31.0258 18.787 31.0258H21.7883C23.2392 31.0258 24.4195 29.8454 24.4195 28.3946V5.57724V5.46495C24.4195 5.31751 24.3732 5.17372 24.287 5.05412ZM20.2877 1.90651L22.4245 4.87412H18.1509L20.2877 1.90651ZM17.5621 6.28036H20.9005V24.4924H19.6746V11.062C19.6747 10.6736 19.3599 10.3588 18.9716 10.3588C18.5833 10.3588 18.2684 10.6736 18.2684 11.062V24.4923H17.5621V6.28036ZM23.0132 28.3945C23.0132 29.0699 22.4638 29.6194 21.7883 29.6194H18.787C18.1116 29.6194 17.5621 29.0699 17.5621 28.3945V25.8986H23.0132V28.3945ZM23.0132 24.4924H22.3068V6.28036H23.0132V24.4924Z" fill="#F6C945"/>
<path d="M19.6607 8.1009C19.6516 8.05661 19.6382 8.01231 19.6207 7.96942C19.6031 7.92723 19.5813 7.88645 19.556 7.84848C19.5307 7.80981 19.5011 7.77395 19.4688 7.74161C19.4364 7.70926 19.4006 7.67973 19.3619 7.65372C19.3239 7.6284 19.2832 7.60731 19.2403 7.58973C19.1981 7.57215 19.1539 7.55809 19.1088 7.54895C19.0181 7.53137 18.9246 7.53137 18.8339 7.54895C18.7896 7.55809 18.7453 7.57215 18.7025 7.58973C18.6602 7.60731 18.6194 7.6284 18.5814 7.65372C18.5428 7.67973 18.5069 7.70926 18.4746 7.74161C18.4422 7.77395 18.4127 7.80981 18.3867 7.84848C18.3614 7.88645 18.3396 7.92723 18.322 7.96942C18.3044 8.01231 18.2911 8.05661 18.2819 8.1009C18.2728 8.14661 18.2686 8.19301 18.2686 8.23872C18.2686 8.42364 18.3438 8.60504 18.4746 8.73582C18.6054 8.8666 18.7868 8.94184 18.9717 8.94184C19.0174 8.94184 19.0639 8.93692 19.1088 8.92778C19.1539 8.91864 19.1982 8.90528 19.2403 8.8877C19.2832 8.87012 19.3239 8.84832 19.3619 8.82301C19.4006 8.7977 19.4364 8.76817 19.4688 8.73582C19.5011 8.70348 19.5307 8.66762 19.556 8.62895C19.5813 8.59098 19.6031 8.5502 19.6207 8.50731C19.6382 8.46512 19.6516 8.42082 19.6607 8.37582C19.6699 8.33082 19.6747 8.28442 19.6747 8.23872C19.6747 8.19301 19.6699 8.14661 19.6607 8.1009Z" fill="#F6C945"/>
<path d="M6.83893 13.1685L6.83872 13.0614C6.83879 12.5072 7.28964 12.0564 7.84377 12.0564C7.85368 12.0564 7.8636 12.0562 7.87351 12.0558L10.0152 11.9651C11.2659 11.9563 12.2807 10.9362 12.2807 9.68342C12.2807 8.42525 11.2571 7.40172 9.99898 7.40172H5.21373C4.73104 7.40172 4.33827 7.00895 4.33827 6.52619C4.33827 6.29261 4.43038 6.0733 4.59759 5.9087C4.75797 5.75071 4.96764 5.66423 5.18913 5.66423C5.19728 5.66423 5.20558 5.66444 5.21373 5.66444L9.40063 5.6643C10.9623 5.6643 12.2327 4.39375 12.2327 2.83211C12.2327 1.27048 10.9622 0 9.40056 0H4.63774C4.24947 0 3.93461 0.314789 3.93461 0.703124C3.93461 1.09146 4.24947 1.40625 4.63774 1.40625H9.40056C10.1868 1.40625 10.8264 2.04588 10.8264 2.83211C10.8264 3.61835 10.1868 4.25798 9.40063 4.25805L5.21873 4.25819C4.61643 4.24989 4.04395 4.48031 3.6111 4.90647C3.1732 5.33763 2.93203 5.91278 2.93203 6.52626C2.93203 7.78443 3.95563 8.80803 5.21373 8.80803H9.99891C10.4816 8.80803 10.8744 9.20073 10.8744 9.68349C10.8744 10.1663 10.4816 10.559 9.99891 10.559C9.989 10.559 9.97909 10.5592 9.96917 10.5597L7.82767 10.6503C6.50544 10.6589 5.43255 11.7372 5.43255 13.0628L5.43276 13.169C2.3793 13.5195 0 16.1195 0 19.2654V24.9005C0 28.2846 2.75315 31.0377 6.13722 31.0377C9.52128 31.0377 12.2744 28.2846 12.2744 24.9005V19.2654C12.2744 16.1186 9.89373 13.5178 6.83893 13.1685ZM1.40625 19.2654C1.40625 16.8955 3.15759 14.9271 5.43409 14.5865V20.3213H1.40625V19.2654ZM10.8682 24.9005C10.8682 27.5092 8.74588 29.6315 6.13722 29.6315C3.52856 29.6315 1.40625 27.5092 1.40625 24.9005V21.7277H10.8682V24.9005ZM10.8682 20.3213H6.84034V14.5865C9.11685 14.9271 10.8682 16.8955 10.8682 19.2654V20.3213Z" fill="#F6C945"/>
<path d="M2.61977 0.565495C2.61063 0.521198 2.59727 0.476901 2.57969 0.43401C2.56211 0.391823 2.54031 0.351042 2.515 0.313073C2.48976 0.274402 2.46023 0.238542 2.42788 0.206198C2.2971 0.0754174 2.1157 0.000183105 1.93078 0.000183105C1.74585 0.000183105 1.56445 0.0754174 1.43367 0.206198C1.40132 0.238542 1.37179 0.274402 1.34648 0.313073C1.32053 0.351042 1.29937 0.391823 1.28179 0.43401C1.26351 0.476901 1.25022 0.521198 1.24101 0.565495C1.23187 0.611198 1.22772 0.657604 1.22772 0.703307C1.22772 0.74901 1.23194 0.795416 1.24101 0.840416C1.25015 0.885416 1.26351 0.929713 1.28172 0.9719C1.2993 1.01479 1.32046 1.05557 1.34641 1.09354C1.37172 1.13221 1.40125 1.16807 1.4336 1.20042C1.46594 1.23276 1.5018 1.26229 1.54054 1.2876C1.57851 1.31292 1.61929 1.33471 1.66148 1.35229C1.70437 1.36987 1.74867 1.38323 1.79367 1.39237C1.83867 1.40151 1.88507 1.40643 1.93078 1.40643C2.1157 1.40643 2.2971 1.3312 2.42788 1.20042C2.46023 1.16807 2.48976 1.13221 2.515 1.09354C2.54031 1.05557 2.56211 1.01479 2.57969 0.9719C2.59727 0.929713 2.61063 0.885416 2.61977 0.840416C2.62891 0.795416 2.63383 0.74901 2.63383 0.703307C2.63383 0.657604 2.62891 0.611198 2.61977 0.565495Z" fill="#F6C945"/>
<path d="M35.9947 7.01584C35.917 5.35668 35.0812 4.5355 34.4096 3.87569C33.683 3.16174 33.2444 2.73079 33.6585 1.31843C33.846 0.679004 33.5878 0.343263 33.417 0.200036C33.2046 0.0218646 32.8256 -0.128182 32.2251 0.169029C31.4471 0.5542 30.2662 1.68658 29.3534 2.9226C28.5154 4.05752 27.5326 5.75697 27.6099 7.40846C27.6678 8.64343 28.1914 9.77581 29.0462 10.5723C28.6238 11.1424 28.3734 11.8473 28.3734 12.6097C28.3734 13.0934 28.472 13.5544 28.6513 13.9729V27.7136C28.6513 29.3859 30.0119 30.7465 31.6842 30.7465C33.3565 30.7465 34.7171 29.3859 34.7171 27.7136V14.427C35.0449 13.899 35.2322 13.2759 35.2322 12.6097C35.2322 11.8564 34.9875 11.1596 34.5743 10.5933C35.5278 9.70824 36.0596 8.40261 35.9947 7.01584ZM33.3109 27.7135C33.3109 28.6105 32.5812 29.3402 31.6843 29.3402C30.7873 29.3402 30.0576 28.6105 30.0576 27.7135V15.5664C30.4227 15.7803 30.8333 15.9302 31.2763 15.9986C31.3118 16.0041 31.3477 16.0068 31.3835 16.0068H32.2221C32.258 16.0068 32.2939 16.0041 32.3293 15.9986C32.3757 15.9914 32.4218 15.9831 32.4677 15.9741C32.497 15.9684 32.5259 15.9618 32.5549 15.9554C32.5675 15.9525 32.58 15.9499 32.5926 15.9469C32.845 15.888 33.0853 15.8023 33.3109 15.6931V27.7135ZM32.7532 14.3945C32.7502 14.396 32.7473 14.3975 32.7444 14.3991C32.7242 14.4098 32.7037 14.4201 32.6831 14.4302C32.6733 14.435 32.6634 14.4396 32.6535 14.4443C32.6378 14.4517 32.622 14.4588 32.6061 14.4658C32.5911 14.4723 32.576 14.4786 32.5609 14.4848C32.5485 14.4898 32.5363 14.4948 32.5239 14.4996C32.5052 14.5069 32.4862 14.5136 32.4672 14.5203C32.4574 14.5237 32.4476 14.5273 32.4377 14.5306C32.4162 14.5377 32.3946 14.5443 32.373 14.5507C32.3648 14.5532 32.3566 14.5558 32.3483 14.5582C32.3247 14.5649 32.3008 14.5708 32.2769 14.5766C32.2702 14.5782 32.2636 14.5801 32.2568 14.5817C32.2261 14.5888 32.1952 14.5952 32.1642 14.6008H31.4418C31.4411 14.6006 31.4404 14.6005 31.4397 14.6004C31.4058 14.5943 31.3722 14.5869 31.3388 14.5791C31.3255 14.5759 31.3122 14.5725 31.299 14.569C31.2791 14.5639 31.2592 14.5585 31.2395 14.5527C31.2229 14.5478 31.2063 14.5431 31.1898 14.5378C31.1774 14.5339 31.1651 14.5294 31.1527 14.5252C30.3504 14.2507 29.7799 13.4807 29.7799 12.6098C29.7799 11.9577 30.0903 11.377 30.5707 11.0068C30.5892 10.9925 30.608 10.9786 30.6269 10.9651C30.6593 10.9419 30.6923 10.9196 30.7261 10.8983C30.7408 10.8889 30.7557 10.8796 30.7706 10.8707C30.8172 10.8429 30.865 10.8169 30.9139 10.7929C30.9187 10.7905 30.9235 10.788 30.9283 10.7856C30.9566 10.772 30.9854 10.759 31.0144 10.7466C31.0192 10.7446 31.024 10.7428 31.0288 10.7409C31.0793 10.7198 31.1308 10.701 31.1833 10.684C31.1995 10.6788 31.2158 10.6739 31.2322 10.6691C31.2677 10.6587 31.3036 10.6492 31.3399 10.6407C31.3677 10.6342 31.3955 10.6281 31.4235 10.6228C31.4426 10.6191 31.4617 10.6156 31.4809 10.6125C31.5249 10.6056 31.5692 10.5998 31.614 10.5957C31.6261 10.5946 31.6384 10.5938 31.6505 10.5929C31.7011 10.5892 31.7518 10.5866 31.8031 10.5866C31.8551 10.5866 31.9065 10.5893 31.9577 10.5931C31.9698 10.594 31.982 10.5947 31.994 10.5959C32.0389 10.6 32.0833 10.6059 32.1274 10.613C32.1473 10.6162 32.167 10.6198 32.1868 10.6236C32.2151 10.6289 32.2431 10.6352 32.271 10.6419C32.3077 10.6506 32.3441 10.6602 32.3799 10.6709C32.3948 10.6753 32.4098 10.68 32.4246 10.6847C32.475 10.7011 32.5246 10.7193 32.5732 10.7393C32.5803 10.7423 32.5876 10.7451 32.5947 10.7481C32.6799 10.7844 32.762 10.8266 32.8408 10.8739C32.8582 10.8844 32.8754 10.8953 32.8925 10.9064C32.9243 10.9268 32.9554 10.9479 32.986 10.97C33.0073 10.9855 33.0284 11.0014 33.0492 11.0177C33.5217 11.3884 33.8261 11.964 33.8261 12.6098C33.8261 13.3677 33.3941 14.0495 32.7532 14.3945ZM33.526 9.64475C33.5108 9.63589 33.4948 9.62837 33.4795 9.61972C33.4428 9.59905 33.4055 9.57915 33.368 9.55981C33.3488 9.54997 33.3297 9.53977 33.3103 9.53028C33.1851 9.46876 33.0555 9.41504 32.9223 9.36891C32.9149 9.36638 32.9076 9.36392 32.9003 9.36139C32.8336 9.33882 32.7661 9.31794 32.6977 9.29945C32.6974 9.29938 32.6971 9.29931 32.6968 9.29916C32.5582 9.26169 32.4162 9.23293 32.2713 9.21303C32.2581 9.2112 32.2448 9.20966 32.2316 9.20797C32.1756 9.20094 32.1193 9.19531 32.0625 9.19109C32.0456 9.18983 32.0287 9.18828 32.0118 9.18723C31.9426 9.18308 31.8731 9.18027 31.8029 9.18027C31.7334 9.18027 31.6646 9.18301 31.5961 9.18709C31.5797 9.18807 31.5634 9.18962 31.547 9.19081C31.4908 9.19496 31.435 9.20045 31.3796 9.20734C31.3666 9.20895 31.3537 9.2105 31.3407 9.21233C31.1261 9.24137 30.9178 9.29037 30.7175 9.35738C30.7118 9.35928 30.7062 9.36118 30.7006 9.36315C30.6372 9.38473 30.5745 9.40794 30.5127 9.43311C30.5076 9.43522 30.5024 9.43712 30.4973 9.43923C30.4328 9.46587 30.3693 9.49407 30.3068 9.52445C30.2933 9.53105 30.2801 9.53837 30.2666 9.54512C30.2239 9.56656 30.1816 9.58871 30.14 9.61191C30.1278 9.61866 30.1152 9.6245 30.1031 9.63139C29.4565 9.0812 29.0574 8.25432 29.0147 7.34272C28.9675 6.33472 29.5584 4.95512 30.6358 3.55766C31.1759 2.85721 31.6962 2.32839 32.108 1.96903C31.9914 3.47111 32.7735 4.23955 33.4241 4.87876C34.0219 5.46608 34.5381 5.97325 34.59 7.08158C34.6375 8.09478 34.237 9.03992 33.526 9.64475Z" fill="#F6C945"/>
</svg>
