<svg width="36" height="36" viewBox="0 0 36 36" fill="none" xmlns="http://www.w3.org/2000/svg">
<path d="M31.9116 25.4815C31.7169 25.4008 31.4928 25.4454 31.3438 25.5944L25.6496 31.2885C25.5006 31.4376 25.456 31.6617 25.5367 31.8564C25.6173 32.0511 25.8074 32.178 26.0181 32.178H31.7123C32.0001 32.178 32.2333 31.9448 32.2333 31.657V25.9628C32.2333 25.7521 32.1063 25.5621 31.9116 25.4815ZM27.2758 31.136L31.1911 27.2207V31.136H27.2758Z" fill="#F6C945"/>
<path d="M35.6784 17.1298C35.4837 17.0491 35.2596 17.0937 35.1105 17.2427L33.55 18.8032V8.19287C33.55 7.90506 33.3167 7.67182 33.029 7.67182H29.0255L30.4788 6.21857C30.479 6.21836 30.4792 6.21808 30.4794 6.21788L31.8797 4.8176C32.1797 4.51759 32.3449 4.1185 32.3449 3.69417C32.3449 3.26984 32.1797 2.87089 31.8797 2.57074L30.2604 0.951502C29.9604 0.651491 29.5613 0.486267 29.137 0.486267C28.7127 0.486267 28.3137 0.651491 28.0136 0.951502L26.6126 2.35248L24.9197 4.04535L21.2933 7.67175H5.1198V2.51708C5.1198 2.22927 4.88649 1.99603 4.59875 1.99603C2.33914 1.99617 0.500732 3.83443 0.500732 6.09418V28.2248C0.500732 28.2633 0.50517 28.3007 0.513074 28.3368C0.585043 29.2956 0.999872 30.1865 1.69315 30.8628C2.4342 31.5855 3.41244 31.9836 4.44774 31.9836H20.3696L17.3709 34.9822C17.2219 35.1313 17.1774 35.3553 17.258 35.5501C17.3386 35.7448 17.5287 35.8717 17.7394 35.8717H35.479C35.7667 35.8717 36 35.6385 36 35.3507V17.6112C36 17.4005 35.873 17.2105 35.6784 17.1298ZM28.7506 1.68846C28.9636 1.47532 29.3106 1.47532 29.5236 1.68846L31.1429 3.30777C31.3561 3.52083 31.3561 3.86771 31.1429 4.08085L30.1105 5.11338L27.718 2.72099L28.7506 1.68846ZM26.9811 3.45788L29.3735 5.85019L28.4175 6.80625L26.0252 4.41393L26.9811 3.45788ZM34.9581 23.466H33.9967C33.7089 23.466 33.4757 23.6992 33.4757 23.987C33.4757 24.2748 33.7089 24.508 33.9967 24.508H34.9581V26.0782H33.9967C33.7089 26.0782 33.4757 26.3114 33.4757 26.5992C33.4757 26.8871 33.7089 27.1203 33.9967 27.1203H34.9581V28.6904H33.9967C33.7089 28.6904 33.4757 28.9236 33.4757 29.2114C33.4757 29.4992 33.7089 29.7325 33.9967 29.7325H34.9581V31.3026H33.9967C33.7089 31.3026 33.4757 31.5359 33.4757 31.8237C33.4757 32.1115 33.7089 32.3447 33.9967 32.3447H34.9581V34.8298H18.9972L24.2603 29.5668C24.4638 29.3633 24.4638 29.0334 24.2603 28.8299C24.2369 28.8066 24.2118 28.7863 24.1855 28.7683C23.9827 28.6294 23.7035 28.6498 23.5233 28.8299L21.4117 30.9416H4.44781C2.86754 30.9416 1.59539 29.7079 1.54533 28.1304C1.54831 28.0314 1.556 27.9332 1.56835 27.8362C1.56841 27.8356 1.56848 27.8351 1.56855 27.8345C1.57438 27.7884 1.58138 27.7425 1.58935 27.6969C1.59026 27.6917 1.59123 27.6865 1.59213 27.6813C1.59941 27.6406 1.60759 27.6001 1.61653 27.5597C1.61903 27.5485 1.62166 27.5373 1.6243 27.5261C1.6322 27.492 1.64073 27.4581 1.64988 27.4243C1.65488 27.406 1.66008 27.3879 1.66541 27.3697C1.67304 27.3432 1.68094 27.3168 1.68933 27.2907C1.69772 27.2645 1.70667 27.2387 1.71575 27.2128C1.72206 27.1947 1.7283 27.1766 1.7351 27.1586C1.74778 27.1245 1.76123 27.0908 1.7751 27.0573C1.77905 27.0476 1.78294 27.0379 1.78703 27.0282C1.80485 26.9866 1.82336 26.9455 1.84291 26.9049C1.84374 26.9031 1.84451 26.9014 1.84534 26.8997C2.25289 26.0563 3.03671 25.4275 3.97737 25.2324C3.98001 25.2318 3.98264 25.2312 3.98528 25.2307C4.0284 25.2218 4.07195 25.2143 4.11577 25.2073C4.12305 25.2061 4.13033 25.2047 4.13774 25.2035C4.17734 25.1975 4.21734 25.1928 4.25735 25.1883C4.26858 25.187 4.27974 25.1853 4.29104 25.1842C4.32966 25.1803 4.36863 25.1778 4.40759 25.1753C4.41994 25.1746 4.43228 25.1732 4.44462 25.1726C4.49565 25.1701 4.5471 25.1687 4.59875 25.1687C4.88649 25.1687 5.1198 24.9355 5.1198 24.6477V20.8697C5.1198 20.5819 4.88649 20.3487 4.59875 20.3487C4.31101 20.3487 4.0777 20.5819 4.0777 20.8697V24.1594C3.19785 24.2707 2.38115 24.6631 1.73718 25.292C1.66944 25.3582 1.60523 25.4269 1.54269 25.4968V6.09418C1.54269 4.58678 2.63998 3.33065 4.07763 3.08257V8.19287V18.7856V18.7857C4.07763 19.0734 4.31094 19.3067 4.59868 19.3067C4.88642 19.3067 5.11973 19.0734 5.11973 18.7857V18.7856V8.71392H20.2513L17.3709 11.5944C17.1674 11.7979 17.1674 12.1277 17.3709 12.3312C17.5744 12.5347 17.9043 12.5347 18.1077 12.3312L21.8776 8.56131C21.8777 8.56118 21.8778 8.56104 21.878 8.56097L25.2882 5.15075L27.6804 7.54314L27.3998 7.8238C27.3996 7.82401 27.3993 7.82422 27.3991 7.82443L16.8929 18.3307L14.5006 15.9384L16.5715 13.8675C16.775 13.6639 16.775 13.3341 16.5715 13.1306C16.368 12.9272 16.0381 12.9272 15.8347 13.1306L13.3953 15.5699C13.3823 15.583 13.3701 15.5968 13.3586 15.6109C13.3548 15.6156 13.3514 15.6207 13.3478 15.6256C13.3404 15.6354 13.3332 15.6452 13.3265 15.6555C13.3227 15.6614 13.3192 15.6675 13.3156 15.6737C13.3099 15.6834 13.3043 15.6933 13.2993 15.7033C13.2959 15.7098 13.293 15.7164 13.2899 15.7232C13.2853 15.7334 13.281 15.7438 13.277 15.7542C13.2756 15.7579 13.2738 15.7614 13.2725 15.765L12.2574 18.6407L11.5653 20.6014C11.5561 20.6275 11.5495 20.6539 11.5446 20.6806H9.81181C9.52407 20.6806 9.29076 20.9139 9.29076 21.2017C9.29076 21.4895 9.52407 21.7227 9.81181 21.7227H24.2413C24.5291 21.7227 24.7623 21.4895 24.7623 21.2017C24.7623 20.9139 24.5291 20.6806 24.2413 20.6806H13.8887L17.0663 19.559C17.069 19.558 17.0715 19.5567 17.0741 19.5557C17.0865 19.5511 17.0986 19.546 17.1106 19.5405C17.1154 19.5383 17.1202 19.5362 17.1248 19.5339C17.1373 19.5277 17.1495 19.5208 17.1616 19.5135C17.1655 19.5111 17.1695 19.509 17.1733 19.5065C17.1859 19.4985 17.1981 19.4897 17.2101 19.4804C17.2131 19.4781 17.2162 19.4761 17.2191 19.4737C17.2336 19.4621 17.2478 19.4495 17.2612 19.4361L27.9834 8.71399H32.5078V19.8454L25.0547 27.2986C24.8512 27.5022 24.8512 27.832 25.0547 28.0355C25.0673 28.0482 25.0806 28.0601 25.0942 28.0713C25.1898 28.1492 25.3065 28.1881 25.4231 28.1881C25.5397 28.1881 25.6565 28.1492 25.752 28.0713C25.7656 28.0602 25.7789 28.0482 25.7915 28.0355C25.7918 28.0353 25.7915 28.0355 25.7918 28.0353L34.9581 18.8689V23.466ZM15.9399 18.8513L14.4474 19.3782L13.453 18.3838L13.9799 16.8913L15.9399 18.8513Z" fill="#F6C945"/>
</svg>
