<svg width="29" height="38" viewBox="0 0 29 38" fill="none" xmlns="http://www.w3.org/2000/svg">
<path d="M2.96875 14.1016C2.96875 20.2402 7.96286 25.2344 14.1016 25.2344C20.2402 25.2344 25.2344 20.2402 25.2344 14.1016C25.2344 7.96286 20.2402 2.96875 14.1016 2.96875C7.96286 2.96875 2.96875 7.96286 2.96875 14.1016ZM14.1016 4.45312C19.4218 4.45312 23.75 8.78129 23.75 14.1016C23.75 19.4218 19.4218 23.75 14.1016 23.75C8.78129 23.75 4.45312 19.4218 4.45312 14.1016C4.45312 8.78129 8.78129 4.45312 14.1016 4.45312Z" fill="#F6C945"/>
<path d="M7.22823 12.7784L10.1051 15.6129L9.44319 19.5966C9.3971 19.8741 9.51162 20.1536 9.7392 20.3188C9.96649 20.4841 10.2677 20.5064 10.5173 20.3771L14.1016 18.5158L17.6855 20.3771C17.9331 20.5055 18.2343 20.4855 18.4637 20.3188C18.6912 20.1536 18.8058 19.8741 18.7597 19.5966L18.0978 15.6129L20.9746 12.7784C21.175 12.5812 21.2466 12.2878 21.1596 12.0202C21.0726 11.7529 20.8421 11.5578 20.5641 11.5158L16.5717 10.9148L14.7652 7.30214C14.6397 7.05078 14.3825 6.89191 14.1016 6.89191C13.8204 6.89191 13.5635 7.05078 13.4377 7.30214L11.6312 10.9148L7.63875 11.5158C7.36072 11.5575 7.13024 11.7529 7.04326 12.0202C6.95629 12.2878 7.02819 12.5812 7.22823 12.7784ZM12.2334 12.3252C12.4722 12.2893 12.6787 12.1394 12.7868 11.9234L14.1016 9.29358L15.4163 11.9234C15.5245 12.1394 15.7309 12.2893 15.9698 12.3252L18.8756 12.7627L16.7816 14.8255C16.6096 14.9951 16.5308 15.2377 16.5702 15.4761L17.0521 18.3755L14.4434 17.021C14.3364 16.9654 14.219 16.9375 14.1016 16.9375C13.9842 16.9375 13.8667 16.9654 13.7595 17.021L11.1508 18.3755L11.6326 15.4761C11.6724 15.2377 11.5935 14.9951 11.4213 14.8255L9.32752 12.7627L12.2334 12.3252Z" fill="#F6C945"/>
<path d="M14.8437 0.742187C14.8437 1.15213 14.5115 1.48437 14.1016 1.48437C13.6916 1.48437 13.3594 1.15213 13.3594 0.742187C13.3594 0.332245 13.6916 0 14.1016 0C14.5115 0 14.8437 0.332245 14.8437 0.742187Z" fill="#F6C945"/>
<path d="M10.6037 0.437459C4.36035 2.03113 0 7.65001 0 14.1015C0 18.1085 1.68471 21.884 4.64215 24.5579L0.170761 32.4382C0.0269622 32.6919 0.0449371 33.0061 0.216568 33.2415C0.388198 33.4772 0.681594 33.5906 0.967162 33.5312L6.04505 32.4767L7.82978 37.5059C7.92661 37.7796 8.17449 37.9712 8.46383 37.997C8.75317 38.0228 9.03061 37.877 9.17412 37.6245L14.1015 28.9618L19.0287 37.6245C19.1615 37.8579 19.4085 37.9996 19.6735 37.9996C19.6952 37.9996 19.7172 37.9988 19.739 37.997C20.0283 37.9712 20.2762 37.7793 20.3733 37.5059L22.1578 32.4767L27.2356 33.5312C27.5209 33.5903 27.8146 33.4769 27.9862 33.2415C28.1582 33.0061 28.1758 32.6919 28.032 32.4382L23.5607 24.5579C26.5181 21.884 28.2028 18.1085 28.2028 14.1015C28.2028 7.65001 23.8425 2.03113 17.5994 0.437459C17.2019 0.335988 16.7981 0.575749 16.6966 0.972935C16.5951 1.37012 16.8349 1.77426 17.2321 1.87574C22.8176 3.30155 26.7187 8.32899 26.7187 14.1015C26.7187 21.1271 21.0129 26.7187 14.1015 26.7187C7.1853 26.7187 1.48437 21.1224 1.48437 14.1015C1.48437 8.32899 5.3852 3.30155 10.9707 1.87574C11.3679 1.77426 11.6077 1.37012 11.5065 0.972935C11.405 0.575749 11.0012 0.335988 10.6037 0.437459ZM8.68619 35.4806L7.22762 31.3704C7.10354 31.0208 6.74056 30.8164 6.3773 30.8918L2.27121 31.7444L5.80993 25.5077C7.87327 27.0077 10.3164 27.9216 12.8569 28.1477L8.68619 35.4806ZM21.8255 30.8918C21.4625 30.8164 21.0993 31.0208 20.9752 31.3704L19.5169 35.4806L15.3459 28.1477C17.8867 27.9216 20.3295 27.0077 22.3932 25.5077L25.9319 31.7444L21.8255 30.8918Z" fill="#F6C945"/>
</svg>
