<svg width="34" height="32" viewBox="0 0 34 32" fill="none" xmlns="http://www.w3.org/2000/svg">
<path d="M33.2685 29.9709C33.2685 29.4198 32.8201 28.9714 32.269 28.9714H31.2847V21.9552C31.2847 21.686 31.0666 21.4679 30.7974 21.4679C30.5282 21.4679 30.31 21.686 30.31 21.9552V28.9714H28.5514C28.5514 28.5321 28.5514 16.3921 28.5514 15.3632C28.5514 14.9536 28.2182 14.6203 27.8086 14.6203H20.8268C20.4172 14.6203 20.0839 14.9536 20.0839 15.3632V28.9714H2.95886V12.6649H30.31V19.6811C30.31 19.9503 30.5282 20.1685 30.7974 20.1685C31.0666 20.1685 31.2847 19.9503 31.2847 19.6811V12.6649H32.2472C33.0532 12.6649 33.5415 11.7711 33.1057 11.0929L29.1616 4.95681C28.973 4.66332 28.6521 4.48814 28.3033 4.48814H12.8797V2.98367H12.9368C13.4818 2.98367 13.9251 2.54033 13.9251 1.99537V0.988296C13.9251 0.443336 13.4818 0 12.9368 0H11.0969C10.8277 0 10.6095 0.218192 10.6095 0.487325C10.6095 0.756459 10.8277 0.974651 11.0969 0.974651H12.9368C12.9444 0.974651 12.9505 0.980759 12.9505 0.988296V1.99537C12.9505 2.00291 12.9444 2.00902 12.9368 2.00902C12.1133 2.00902 7.60125 2.00902 6.98267 2.00902C6.97514 2.00902 6.96903 2.00291 6.96903 1.99537V0.988296C6.96903 0.980759 6.97514 0.974651 6.98267 0.974651H8.82262C9.09182 0.974651 9.30995 0.756459 9.30995 0.487325C9.30995 0.218192 9.09182 0 8.82262 0H6.98267C6.43771 0 5.99438 0.443336 5.99438 0.988296V1.99537C5.99438 2.54033 6.43771 2.98367 6.98267 2.98367H7.03979V4.48814H4.9656C4.61668 4.48814 4.29576 4.66338 4.10726 4.95681L0.163237 11.0929C-0.272562 11.7709 0.215413 12.6649 1.02164 12.6649H1.98414V28.9714H0.999877C0.448745 28.9714 0.000340573 29.4197 0.000340573 29.9709V31.0005C0.000340573 31.5516 0.44868 32 0.999877 32H32.269C32.82 32 33.2684 31.5517 33.2684 31.0005V29.9709H33.2685ZM21.0586 15.595H27.5768V17.0349H21.0586V15.595ZM21.0586 18.0096H27.5768V28.9714H21.0586V18.0096ZM8.01444 2.98367H11.9051V7.88252C11.9051 7.8974 11.893 7.90942 11.8782 7.90942H8.04128C8.02646 7.90942 8.01444 7.89734 8.01444 7.88252C8.01444 6.8848 8.01444 3.99061 8.01444 2.98367ZM1.02164 11.6903C1.01281 11.6903 0.994484 11.6903 0.981489 11.6664C0.968494 11.6427 0.97837 11.6273 0.983113 11.6199H0.983178L4.9272 5.48371C4.93558 5.47059 4.94994 5.46279 4.96554 5.46279H7.03979V7.88252C7.03979 8.43482 7.48904 8.88407 8.04128 8.88407H11.8782C12.4305 8.88407 12.8797 8.43476 12.8797 7.88252V5.46279H28.3033C28.3189 5.46279 28.3333 5.47065 28.3418 5.48384L32.2856 11.6199C32.2904 11.6273 32.3003 11.6427 32.2873 11.6665C32.2743 11.6904 32.256 11.6904 32.2472 11.6904C30.5946 11.6903 2.52794 11.6903 1.02164 11.6903ZM32.2938 31.0005C32.2938 31.0142 32.2827 31.0253 32.269 31.0253H0.999877C0.986167 31.0253 0.974991 31.0142 0.974991 31.0005V29.9709C0.974991 29.9572 0.986167 29.946 0.999877 29.946H32.269C32.2827 29.946 32.2938 29.9572 32.2938 29.9709V31.0005H32.2938Z" fill="#F6C945"/>
<path d="M5.571 14.6204C5.16139 14.6204 4.82812 14.9536 4.82812 15.3632V26.3462C4.82812 26.7558 5.16139 27.0891 5.571 27.0891H17.7568C18.1664 27.0891 18.4996 26.7558 18.4996 26.3462C18.4996 25.8708 18.4996 15.8459 18.4996 15.3632C18.4996 14.9536 18.1664 14.6204 17.7567 14.6204H5.571ZM8.00237 26.1144H5.80278V22.5493H8.00237V26.1144ZM8.00237 21.5746H5.80278V18.0096H8.00237V21.5746ZM11.1765 26.1144H8.97695V22.5493H11.1765V26.1144ZM11.1765 21.5746H8.97695V18.0096H11.1765V21.5746ZM14.3508 26.1144H12.1512V22.5493H14.3508V26.1144ZM14.3508 21.5746H12.1512V18.0096H14.3508V21.5746ZM17.525 26.1144H15.3254V22.5493H17.525V26.1144ZM17.525 21.5746H15.3254V18.0096H17.525V21.5746ZM17.525 17.035H5.80278V15.595H17.5249V17.035H17.525Z" fill="#F6C945"/>
<path d="M26.6673 22.7101C26.5783 22.5676 26.4221 22.4811 26.2541 22.4811H25.1956C24.9264 22.4811 24.7083 22.6992 24.7083 22.9684C24.7083 23.2376 24.9264 23.4558 25.1956 23.4558H25.984L26.1717 23.756C26.2642 23.9038 26.4229 23.985 26.5853 23.985C26.6736 23.985 26.7629 23.9611 26.8432 23.9108C27.0714 23.7682 27.1408 23.4675 26.9982 23.2392L26.6673 22.7101Z" fill="#F6C945"/>
</svg>
