<svg width="28" height="31" viewBox="0 0 28 31" fill="none" xmlns="http://www.w3.org/2000/svg">
<path d="M13.1569 10.9755H14.8431C15.1852 10.9755 15.4635 10.6848 15.4635 10.3275V9.06257C15.4635 8.70526 15.1852 8.41455 14.8431 8.41455H13.1569C12.8149 8.41455 12.5366 8.70526 12.5366 9.06257V10.3275C12.5366 10.6848 12.8149 10.9755 13.1569 10.9755ZM13.3683 9.28331H14.6317V10.1067H13.3683V9.28331Z" fill="#F6C945"/>
<path d="M17.1813 10.9755H18.8675C19.2095 10.9755 19.4878 10.6848 19.4878 10.3275V9.06257C19.4878 8.70526 19.2095 8.41455 18.8675 8.41455H17.1813C16.8393 8.41455 16.561 8.70526 16.561 9.06257V10.3275C16.561 10.6848 16.8393 10.9755 17.1813 10.9755ZM17.3927 9.28331H18.6562V10.1067H17.3927V9.28331Z" fill="#F6C945"/>
<path d="M9.21008 10.9755H11.107C11.4918 10.9755 11.8049 10.6848 11.8049 10.3275V9.06257C11.8049 8.70526 11.4918 8.41455 11.107 8.41455H9.21008C8.82528 8.41455 8.51221 8.70526 8.51221 9.06257V10.3275C8.51221 10.6848 8.82528 10.9755 9.21008 10.9755ZM9.44786 9.28331H10.8692V10.1067H9.44786V9.28331Z" fill="#F6C945"/>
<path d="M13.1569 25.244H14.8431C15.1852 25.244 15.4635 24.9533 15.4635 24.5959V23.331C15.4635 22.9737 15.1852 22.683 14.8431 22.683H13.1569C12.8149 22.683 12.5366 22.9737 12.5366 23.331V24.5959C12.5366 24.9532 12.8149 25.244 13.1569 25.244ZM13.3683 23.5517H14.6317V24.3751H13.3683V23.5517Z" fill="#F6C945"/>
<path d="M17.1813 25.244H18.8675C19.2095 25.244 19.4878 24.9533 19.4878 24.5959V23.331C19.4878 22.9737 19.2095 22.683 18.8675 22.683H17.1813C16.8393 22.683 16.561 22.9737 16.561 23.331V24.5959C16.561 24.9532 16.8393 25.244 17.1813 25.244ZM17.3927 23.5517H18.6562V24.3751H17.3927V23.5517Z" fill="#F6C945"/>
<path d="M11.8049 24.5959V23.331C11.8049 22.9737 11.4918 22.683 11.107 22.683H9.21008C8.82528 22.683 8.51221 22.9737 8.51221 23.331V24.5959C8.51221 24.9533 8.82528 25.244 9.21008 25.244H11.107C11.4918 25.244 11.8049 24.9532 11.8049 24.5959ZM10.8692 24.3751H9.44786V23.5518H10.8692V24.3751Z" fill="#F6C945"/>
<path d="M13.1569 21.5854H14.8431C15.1852 21.5854 15.4635 21.2947 15.4635 20.9374V19.6724C15.4635 19.3151 15.1852 19.0244 14.8431 19.0244H13.1569C12.8149 19.0244 12.5366 19.3151 12.5366 19.6724V20.9374C12.5366 21.2947 12.8149 21.5854 13.1569 21.5854ZM13.3683 19.8932H14.6317V20.7166H13.3683V19.8932Z" fill="#F6C945"/>
<path d="M17.1813 21.5854H18.8675C19.2095 21.5854 19.4878 21.2947 19.4878 20.9374V19.6724C19.4878 19.3151 19.2095 19.0244 18.8675 19.0244H17.1813C16.8393 19.0244 16.561 19.3151 16.561 19.6724V20.9374C16.561 21.2947 16.8393 21.5854 17.1813 21.5854ZM17.3927 19.8932H18.6562V20.7166H17.3927V19.8932Z" fill="#F6C945"/>
<path d="M9.21008 21.5854H11.107C11.4918 21.5854 11.8049 21.2947 11.8049 20.9374V19.6724C11.8049 19.3151 11.4918 19.0244 11.107 19.0244H9.21008C8.82528 19.0244 8.51221 19.3151 8.51221 19.6724V20.9374C8.51221 21.2947 8.82528 21.5854 9.21008 21.5854ZM9.44786 19.8932H10.8692V20.7166H9.44786V19.8932Z" fill="#F6C945"/>
<path d="M13.1569 18.2928H14.8431C15.1852 18.2928 15.4635 17.9606 15.4635 17.5522V16.1066C15.4635 15.6982 15.1852 15.366 14.8431 15.366H13.1569C12.8149 15.366 12.5366 15.6982 12.5366 16.1066V17.5522C12.5366 17.9606 12.8149 18.2928 13.1569 18.2928ZM13.3683 16.3588H14.6317V17.2998H13.3683V16.3588Z" fill="#F6C945"/>
<path d="M17.1813 18.2928H18.8675C19.2095 18.2928 19.4878 17.9606 19.4878 17.5522V16.1066C19.4878 15.6982 19.2095 15.366 18.8675 15.366H17.1813C16.8393 15.366 16.561 15.6982 16.561 16.1066V17.5522C16.561 17.9606 16.8393 18.2928 17.1813 18.2928ZM17.3927 16.3588H18.6562V17.2998H17.3927V16.3588Z" fill="#F6C945"/>
<path d="M9.21008 18.2928H11.107C11.4918 18.2928 11.8049 17.9606 11.8049 17.5522V16.1066C11.8049 15.6982 11.4918 15.366 11.107 15.366H9.21008C8.82528 15.366 8.51221 15.6982 8.51221 16.1066V17.5522C8.51221 17.9606 8.82528 18.2928 9.21008 18.2928ZM9.44786 16.3588H10.8692V17.2998H9.44786V16.3588Z" fill="#F6C945"/>
<path d="M13.1569 14.6342H14.8431C15.1852 14.6342 15.4635 14.3435 15.4635 13.9862V12.7213C15.4635 12.3639 15.1852 12.0732 14.8431 12.0732H13.1569C12.8149 12.0732 12.5366 12.3639 12.5366 12.7213V13.9862C12.5366 14.3435 12.8149 14.6342 13.1569 14.6342ZM13.3683 12.9421H14.6317V13.7654H13.3683V12.9421Z" fill="#F6C945"/>
<path d="M17.1813 14.6342H18.8675C19.2095 14.6342 19.4878 14.3435 19.4878 13.9862V12.7213C19.4878 12.3639 19.2095 12.0732 18.8675 12.0732H17.1813C16.8393 12.0732 16.561 12.3639 16.561 12.7213V13.9862C16.561 14.3435 16.8393 14.6342 17.1813 14.6342ZM17.3927 12.9421H18.6562V13.7654H17.3927V12.9421Z" fill="#F6C945"/>
<path d="M25.0094 24.5122H23.1125C22.7277 24.5122 22.4146 24.8029 22.4146 25.1602V26.4252C22.4146 26.7825 22.7277 27.0732 23.1125 27.0732H25.0094C25.3942 27.0732 25.7073 26.7825 25.7073 26.4252V25.1602C25.7073 24.8029 25.3942 24.5122 25.0094 24.5122ZM24.7716 26.2044H23.3503V25.3811H24.7716V26.2044Z" fill="#F6C945"/>
<path d="M25.7073 21.5018C25.7073 21.1445 25.3942 20.8538 25.0094 20.8538H23.1125C22.7277 20.8538 22.4146 21.1445 22.4146 21.5018V22.7667C22.4146 23.124 22.7277 23.4147 23.1125 23.4147H25.0094C25.3942 23.4147 25.7073 23.124 25.7073 22.7667V21.5018ZM24.7716 22.5459H23.3503V21.7226H24.7716V22.5459Z" fill="#F6C945"/>
<path d="M25.7073 17.9357C25.7073 17.5273 25.3942 17.1951 25.0094 17.1951H23.1125C22.7277 17.1951 22.4146 17.5273 22.4146 17.9357V19.3813C22.4146 19.7897 22.7277 20.1219 23.1125 20.1219H25.0094C25.3942 20.1219 25.7073 19.7897 25.7073 19.3813V17.9357ZM24.7716 19.129H23.3503V18.1881H24.7716V19.129Z" fill="#F6C945"/>
<path d="M25.7073 14.5504C25.7073 14.193 25.3942 13.9023 25.0094 13.9023H23.1125C22.7277 13.9023 22.4146 14.193 22.4146 14.5504V15.8153C22.4146 16.1726 22.7277 16.4633 23.1125 16.4633H25.0094C25.3942 16.4633 25.7073 16.1726 25.7073 15.8153V14.5504ZM24.7716 15.5946H23.3503V14.7712H24.7716V15.5946Z" fill="#F6C945"/>
<path d="M4.96508 24.5122H3.27889C2.93685 24.5122 2.65857 24.8029 2.65857 25.1602V26.4252C2.65857 26.7825 2.93685 27.0732 3.27889 27.0732H4.96508C5.30712 27.0732 5.5854 26.7825 5.5854 26.4252V25.1602C5.5854 24.8029 5.30712 24.5122 4.96508 24.5122ZM4.75372 26.2044H3.49024V25.3811H4.75367V26.2044H4.75372Z" fill="#F6C945"/>
<path d="M4.96508 20.8538H3.27889C2.93685 20.8538 2.65857 21.1445 2.65857 21.5018V22.7667C2.65857 23.124 2.93685 23.4147 3.27889 23.4147H4.96508C5.30712 23.4147 5.5854 23.124 5.5854 22.7667V21.5018C5.5854 21.1445 5.30712 20.8538 4.96508 20.8538ZM4.75372 22.5459H3.49024V21.7226H4.75367V22.5459H4.75372Z" fill="#F6C945"/>
<path d="M4.96508 17.1951H3.27889C2.93685 17.1951 2.65857 17.5273 2.65857 17.9357V19.3813C2.65857 19.7897 2.93685 20.1219 3.27889 20.1219H4.96508C5.30712 20.1219 5.5854 19.7897 5.5854 19.3813V17.9357C5.5854 17.5273 5.30712 17.1951 4.96508 17.1951ZM4.75372 19.129H3.49024V18.1881H4.75367V19.129H4.75372Z" fill="#F6C945"/>
<path d="M4.96508 13.9023H3.27889C2.93685 13.9023 2.65857 14.193 2.65857 14.5504V15.8153C2.65857 16.1726 2.93685 16.4633 3.27889 16.4633H4.96508C5.30712 16.4633 5.5854 16.1726 5.5854 15.8153V14.5504C5.5854 14.193 5.30712 13.9023 4.96508 13.9023ZM4.75372 15.5946H3.49024V14.7712H4.75367V15.5946H4.75372Z" fill="#F6C945"/>
<path d="M9.21008 14.6342H11.107C11.4918 14.6342 11.8049 14.3435 11.8049 13.9862V12.7213C11.8049 12.3639 11.4918 12.0732 11.107 12.0732H9.21008C8.82528 12.0732 8.51221 12.3639 8.51221 12.7213V13.9862C8.51221 14.3435 8.82528 14.6342 9.21008 14.6342ZM9.44786 12.9421H10.8692V13.7654H9.44786V12.9421Z" fill="#F6C945"/>
<path d="M0.910315 30.7317H27.0897C27.3366 30.7317 27.5366 30.5301 27.5366 30.2815C27.5366 30.0329 27.3366 29.8314 27.0897 29.8314H27.0618V21.8627C27.0618 21.6141 26.8618 21.4125 26.6149 21.4125C26.3681 21.4125 26.168 21.6141 26.168 21.8627V29.8314H21.5836V12.6775H26.168V19.7619C26.168 20.0105 26.3681 20.212 26.6149 20.212C26.8618 20.212 27.0618 20.0105 27.0618 19.7619V12.6537C27.0618 12.1704 26.6715 11.7772 26.1917 11.7772H21.5836V7.16151C21.5836 6.6782 21.1933 6.28499 20.7135 6.28499H19.5177V3.98642C19.5177 3.50311 19.1273 3.1099 18.6476 3.1099H17.763C17.5161 3.1099 17.3161 3.31146 17.3161 3.56008C17.3161 3.80869 17.5161 4.01025 17.763 4.01025H18.6238V6.28499H9.37615V4.01025H15.6777C15.9246 4.01025 16.1246 3.80869 16.1246 3.56008C16.1246 3.31146 15.9246 3.1099 15.6777 3.1099H14.4469V0.450171C14.4469 0.201557 14.2469 0 14.0001 0C13.7532 0 13.5532 0.201557 13.5532 0.450171V3.1099H9.35244C8.87267 3.1099 8.48234 3.50311 8.48234 3.98642V6.28499H7.28656C6.80674 6.28499 6.41641 6.6782 6.41641 7.16151V11.7772H1.80835C1.32859 11.7772 0.938259 12.1704 0.938259 12.6537V29.8314H0.910315C0.663461 29.8314 0.46344 30.0329 0.46344 30.2815C0.46344 30.5301 0.663521 30.7317 0.910315 30.7317ZM13.5532 29.8314H11.0363V27.2386H13.5532V29.8314ZM16.9638 29.8314H14.4469V27.2386H16.9638V29.8314ZM7.31022 7.18534H20.69V29.8314H17.8576V26.9922C17.8576 26.6317 17.5664 26.3383 17.2084 26.3383C16.278 26.3383 11.7221 26.3383 10.7917 26.3383C10.4338 26.3383 10.1426 26.6316 10.1426 26.9922V29.8314H7.31022C7.31022 29.2508 7.31022 7.79259 7.31022 7.18534ZM1.83201 12.6775H6.41641V29.8314H1.83201V12.6775Z" fill="#F6C945"/>
</svg>
