<svg width="37" height="32" viewBox="0 0 37 32" fill="none" xmlns="http://www.w3.org/2000/svg">
<path d="M7.28464 21.3669H4.39929C4.10429 21.3669 3.86496 21.6063 3.86496 21.9013V26.069C3.86496 26.3643 4.10429 26.6033 4.39929 26.6033H7.28464C7.57964 26.6033 7.81897 26.3643 7.81897 26.069V21.9013C7.81897 21.6063 7.57964 21.3669 7.28464 21.3669ZM6.75032 25.5347H4.93361V22.4356H6.75032V25.5347Z" fill="#F6C945"/>
<path d="M29.192 21.3669C28.897 21.3669 28.6577 21.6063 28.6577 21.9013V26.069C28.6577 26.3643 28.897 26.6033 29.192 26.6033H32.0773C32.3723 26.6033 32.6117 26.3643 32.6117 26.069V21.9013C32.6117 21.6063 32.3723 21.3669 32.0773 21.3669H29.192ZM31.543 25.5347H29.7263V22.4356H31.543V25.5347Z" fill="#F6C945"/>
<path d="M12.8238 3.2416C12.8238 3.53659 13.0631 3.77593 13.3581 3.77593H23.1185C23.4135 3.77593 23.6528 3.53659 23.6528 3.2416C23.6528 2.94661 23.4135 2.70728 23.1185 2.70728H13.3581C13.0631 2.70728 12.8238 2.94633 12.8238 3.2416Z" fill="#F6C945"/>
<path d="M34.4106 22.2753C34.7056 22.2753 34.9449 22.0362 34.9449 21.7409V19.2118H35.9423C36.2373 19.2118 36.4766 18.9727 36.4766 18.6775V16.3028C36.4766 16.0078 36.2373 15.7685 35.9423 15.7685H27.3931V15.2419C28.1206 15.0223 28.6518 14.3461 28.6518 13.5482V11.8028H29.5304C29.8254 11.8028 30.0647 11.5634 30.0647 11.2684V8.89346C30.0647 8.59847 29.8254 8.35914 29.5304 8.35914H24.8759V6.95792H26.8707C27.1657 6.95792 27.4051 6.71887 27.4051 6.4236V0.534326C27.4051 0.239333 27.1657 0 26.8707 0H15.4954C15.2005 0 14.9611 0.239333 14.9611 0.534326C14.9611 0.829318 15.2005 1.06865 15.4954 1.06865H26.3364V5.88955H10.1402V1.06865H13.5006C13.7956 1.06865 14.035 0.829318 14.035 0.534326C14.035 0.239333 13.7956 0 13.5006 0H9.6059C9.3109 0 9.07157 0.239333 9.07157 0.534326V6.42387C9.07157 6.71887 9.3109 6.9582 9.6059 6.9582H11.6007V8.35941H6.94623C6.65124 8.35941 6.41191 8.59847 6.41191 8.89374V11.2684C6.41191 11.5634 6.65124 11.8028 6.94623 11.8028H7.82481V13.5482C7.82481 14.3461 8.35607 15.0223 9.08354 15.2419V15.7685H5.22442C4.92943 15.7685 4.6901 16.0078 4.6901 16.3028C4.6901 16.598 4.92943 16.8371 5.22442 16.8371H9.08354V18.1431H1.06865V16.8371H3.22961C3.52488 16.8371 3.76393 16.598 3.76393 16.3028C3.76393 16.0078 3.52488 15.7685 3.22961 15.7685H0.534326C0.239333 15.7685 0 16.0078 0 16.3028V18.6775C0 18.9727 0.239333 19.2118 0.534326 19.2118H1.53173V28.7584H0.534326C0.239333 28.7584 0 28.9977 0 29.2927V31.4657C0 31.7609 0.239333 32 0.534326 32H35.9423C36.2373 32 36.4766 31.7609 36.4766 31.4657V29.2927C36.4766 28.9977 36.2373 28.7584 35.9423 28.7584H34.9449V23.7357C34.9449 23.4408 34.7056 23.2014 34.4106 23.2014C34.1156 23.2014 33.8762 23.4408 33.8762 23.7357V28.7584H27.3931V19.2118H33.8762V21.7409C33.8762 22.0362 34.1156 22.2753 34.4106 22.2753ZM35.408 16.8371V18.1431C34.6062 18.1431 28.4876 18.1431 27.3931 18.1431V16.8371H35.408ZM24.4485 28.7584V20.9573C24.4485 20.6623 24.2091 20.4229 23.9141 20.4229H12.5625C12.2675 20.4229 12.0282 20.6623 12.0282 20.9573V28.7584H10.1522C10.1522 27.8164 10.1522 19.703 10.1522 18.0246H26.3244V28.7584H24.4485ZM13.0968 28.7584V21.4916H17.704V28.7584H13.0968ZM18.7726 21.4916H23.3798V28.7584H18.7726V21.4916ZM12.7645 11.8025V13.5479C12.7645 13.9345 12.4503 14.2487 12.0641 14.2487C11.6775 14.2487 11.3633 13.9345 11.3633 13.5479V11.8025H12.7645ZM15.2341 11.8025V13.5479C15.2341 13.9345 14.9199 14.2487 14.5337 14.2487C14.1474 14.2487 13.8332 13.9345 13.8332 13.5479V11.8025H15.2341ZM17.704 11.8025V13.5479C17.704 13.9345 17.3898 14.2487 17.0035 14.2487C16.6172 14.2487 16.3031 13.9345 16.3031 13.5479V11.8025H17.704ZM20.1739 11.8025V13.5479C20.1739 13.9345 19.8597 14.2487 19.4734 14.2487C19.0868 14.2487 18.7726 13.9345 18.7726 13.5479V11.8025H20.1739ZM22.6434 11.8025V13.5479C22.6434 13.9345 22.3292 14.2487 21.943 14.2487C21.5567 14.2487 21.2425 13.9345 21.2425 13.5479V11.8025H22.6434ZM25.1133 11.8025V13.5479C25.1133 13.9345 24.7991 14.2487 24.4128 14.2487C24.0266 14.2487 23.7124 13.9345 23.7124 13.5479V11.8025H25.1133ZM10.1522 15.2266C10.4088 15.1409 10.6395 14.9984 10.8287 14.8136C11.5281 15.4963 12.6246 15.4721 13.2989 14.8139C13.9899 15.4882 15.0844 15.4815 15.7687 14.8139C16.4586 15.4877 17.5537 15.4815 18.2383 14.8139C18.9416 15.4999 20.0369 15.4693 20.7082 14.8139C21.4059 15.4946 22.5018 15.4737 23.178 14.8139C23.871 15.4904 24.9672 15.4782 25.6479 14.8136C25.8374 14.9984 26.0679 15.1412 26.3247 15.2266V16.9559H10.1525C10.1522 16.443 10.1522 15.8397 10.1522 15.2266ZM27.5832 13.5479C27.5832 13.932 27.2698 14.2554 26.8691 14.2476C26.4903 14.2403 26.182 13.9264 26.182 13.5479V11.8025H27.5832V13.5479ZM23.8073 8.35914H23.0948V6.95792H23.8073V8.35914ZM22.0262 6.95792V8.35914H14.4504V6.95792H22.0262ZM12.6694 6.95792H13.3818V8.35914H12.6694V6.95792ZM7.48056 9.42779H28.9961V10.7338C25.9368 10.7338 9.38131 10.7338 7.48056 10.7338V9.42779ZM8.89346 11.8025H10.2947V13.5479C10.2947 13.9264 9.9866 14.2403 9.60756 14.2476C9.20654 14.2554 8.89374 13.9317 8.89374 13.5479V11.8025H8.89346ZM2.60038 19.2118H9.08354V28.7584H2.60038V19.2118ZM35.408 30.9313H1.06865V29.8271H35.408V30.9313Z" fill="#F6C945"/>
</svg>
