<svg width="33" height="32" viewBox="0 0 33 32" fill="none" xmlns="http://www.w3.org/2000/svg">
<path d="M31.8139 9.93397L21.1667 3.08356C20.9541 2.94679 20.671 3.00832 20.5343 3.22076C20.3976 3.43327 20.459 3.71637 20.6715 3.85313L31.1631 10.6034H28.7173L16.7742 2.91924C16.3676 2.65766 15.8421 2.65772 15.4355 2.91924L3.49234 10.6034H1.04654L16.1043 0.914563L18.2368 2.28662C18.4494 2.42332 18.7324 2.36192 18.8692 2.14942C19.0059 1.93691 18.9445 1.65381 18.732 1.51705L16.5994 0.144991C16.299 -0.0483303 15.9108 -0.0483303 15.6103 0.144991L0.395743 9.93397C0.0717585 10.1425 -0.0729335 10.5309 0.0357113 10.9005C0.144356 11.2702 0.476204 11.5185 0.861462 11.5185H3.16924V13.0957V14.4769C3.16924 14.8411 3.42754 15.1461 3.77053 15.2182V16.0236C3.77053 16.4413 4.11036 16.7811 4.52808 16.7811H4.59099V22.3871C4.59099 22.6398 4.79583 22.8446 5.04853 22.8446C5.30124 22.8446 5.50608 22.6398 5.50608 22.3871V16.3236C5.50608 16.0709 5.30124 15.866 5.04853 15.866H4.68567V15.2344H7.92633V15.8659H7.56347C7.31076 15.8659 7.10593 16.0707 7.10593 16.3234V26.4328C7.10593 26.6855 7.31076 26.8903 7.56347 26.8903H7.92633V27.577H4.68567V26.8903H5.04853C5.30124 26.8903 5.50608 26.6855 5.50608 26.4328V25.2633C5.50608 25.0106 5.30124 24.8057 5.04853 24.8057C4.79583 24.8057 4.59099 25.0106 4.59099 25.2633V25.9752H4.52808C4.11036 25.9752 3.77053 26.315 3.77053 26.7327V27.538C3.42748 27.6102 3.16924 27.9152 3.16924 28.2793V29.203H1.54843C1.04264 29.203 0.63115 29.6145 0.63115 30.1203V31.0827C0.63115 31.5885 1.04264 32 1.54843 32H30.6612C31.167 32 31.5785 31.5885 31.5785 31.0827V30.1203C31.5785 29.6145 31.167 29.203 30.6612 29.203H29.0404V28.2793C29.0404 27.9152 28.7821 27.6102 28.4391 27.538V26.7327C28.4391 26.315 28.0993 25.9752 27.6816 25.9752H27.6187V16.781H27.6816C28.0993 16.781 28.4391 16.4411 28.4391 16.0234V15.2181C28.7822 15.146 29.0404 14.841 29.0404 14.4768V13.0956V11.5184H31.3482C31.7334 11.5184 32.0653 11.27 32.1739 10.9004C32.2826 10.5309 32.1379 10.1424 31.8139 9.93397ZM15.9306 3.68881C16.0364 3.62068 16.1732 3.62074 16.2791 3.68881L27.0261 10.6035H5.1836L15.9306 3.68881ZM4.08432 11.5185H28.1253V12.6381H23.2245H18.784H13.4256H8.98516H4.08432V11.5185ZM18.6403 27.5381V26.7328C18.6403 26.3151 18.3005 25.9753 17.8828 25.9753H17.8199V16.7811H17.8828C18.3005 16.7811 18.6403 16.4413 18.6403 16.0236V15.2182C18.9834 15.1461 19.2416 14.8411 19.2416 14.4769V13.5532H22.7669V14.4769C22.7669 14.8411 23.0253 15.1461 23.3682 15.2182V16.0236C23.3682 16.4413 23.7081 16.7811 24.1258 16.7811H24.1887V25.9753H24.1258C23.7081 25.9753 23.3682 26.3151 23.3682 26.7328V27.5381C23.0253 27.6103 22.7669 27.9153 22.7669 28.2795V29.2031H19.2416V28.2795C19.2416 27.9153 18.9833 27.6103 18.6403 27.5381ZM8.84141 27.5381V26.7328C8.84141 26.3151 8.50158 25.9753 8.08386 25.9753H8.02095V16.7811H8.08386C8.50158 16.7811 8.84141 16.4413 8.84141 16.0236V15.2182C9.1844 15.1461 9.4427 14.8411 9.4427 14.4769V13.5532H12.9681V14.4769C12.9681 14.8411 13.2264 15.1461 13.5694 15.2182V16.0236C13.5694 16.4413 13.9092 16.7811 14.3269 16.7811H14.3898V25.9753H14.3269C13.9092 25.9753 13.5694 26.3151 13.5694 26.7328V27.5381C13.2264 27.6103 12.9681 27.9153 12.9681 28.2795V29.2031H9.4427V28.2795C9.4427 27.9153 9.1844 27.6103 8.84141 27.5381ZM17.3623 26.8903H17.7252V27.577H14.4845V26.8903H14.8474C15.1001 26.8903 15.3049 26.6855 15.3049 26.4328V16.3235C15.3049 16.0708 15.1001 15.8659 14.8474 15.8659H14.4845V15.2344H17.7252V15.8659H17.3623C17.1096 15.8659 16.9048 16.0707 16.9048 16.3234V26.4328C16.9048 26.6855 17.1096 26.8903 17.3623 26.8903ZM14.0269 14.3193H14.0249H13.8832V13.5532H18.3265V14.3193H18.1827C18.1824 14.3193 18.182 14.3194 18.1817 14.3194C18.1814 14.3194 18.181 14.3193 18.1807 14.3193H14.0269ZM13.8832 28.4695C13.9278 28.484 13.9754 28.4922 14.0249 28.4922H18.1807C18.2317 28.4922 18.2806 28.4834 18.3265 28.468V29.203H13.8832V28.4695ZM4.22813 14.3193H4.08438V13.5532H8.52768V14.3193H8.52762H8.38387H4.22813ZM4.08432 28.4688C4.12955 28.4837 4.1778 28.4922 4.22807 28.4922H8.38387C8.43414 28.4922 8.48239 28.4837 8.52762 28.4688V29.203H4.08432V28.4688ZM30.6634 30.1203L30.6622 31.0849C30.6622 31.0849 30.6619 31.085 30.6612 31.085L1.54623 31.0828L1.54843 30.1182L30.6634 30.1203ZM27.9803 28.4921C28.031 28.4921 28.0797 28.4835 28.1253 28.4683V29.203H23.682V28.4692C23.7269 28.4839 23.7747 28.4921 23.8245 28.4921H27.9803ZM24.6462 15.866H24.2833V15.2344H27.524V15.8659H27.1611C26.9084 15.8659 26.7036 16.0707 26.7036 16.3234V26.4328C26.7036 26.6855 26.9084 26.8904 27.1611 26.8904H27.524V27.577H24.2833V26.8904H24.6462C24.8989 26.8904 25.1037 26.6855 25.1037 26.4328V16.3235C25.1037 16.0708 24.8989 15.866 24.6462 15.866ZM28.1254 14.3193H27.9816C27.9814 14.3193 27.9811 14.3194 27.981 14.3194C27.9808 14.3194 27.9805 14.3193 27.9803 14.3193H23.8258H23.8246H23.6821V13.5532H28.1254V14.3193Z" fill="#F6C945"/>
</svg>
