<svg width="32" height="32" viewBox="0 0 32 32" fill="none" xmlns="http://www.w3.org/2000/svg">
<path d="M14.1391 4.48132H12.1946V2.53683C12.1946 2.28056 11.9868 2.07275 11.7306 2.07275H9.54091C9.28464 2.07275 9.07684 2.28056 9.07684 2.53683V4.48132H7.13241C6.87614 4.48132 6.66833 4.68912 6.66833 4.94539V7.13498C6.66833 7.39124 6.87608 7.59905 7.13241 7.59905H9.07684V9.54348C9.07684 9.79974 9.28464 10.0076 9.54091 10.0076H11.7305C11.9868 10.0076 12.1946 9.7998 12.1946 9.54348V7.59905H14.139C14.3953 7.59905 14.6031 7.39124 14.6031 7.13498V4.94539C14.6031 4.68912 14.3953 4.48132 14.1391 4.48132ZM13.675 6.67084H11.7306C11.4743 6.67084 11.2665 6.87865 11.2665 7.13491V9.07934H10.005V7.13491C10.005 6.87865 9.79724 6.67084 9.54097 6.67084H7.59655V5.40947H9.54097C9.79724 5.40947 10.005 5.20166 10.005 4.94539V3.0009H11.2665V4.94539C11.2665 5.20166 11.4742 5.40947 11.7306 5.40947H13.675V6.67084Z" fill="#F6C945"/>
<path d="M30.7835 3.60372C31.0397 3.60372 31.2475 3.39591 31.2475 3.13964V0.990644C31.2475 0.734378 31.0397 0.52657 30.7835 0.52657H27.8203C27.564 0.52657 27.3562 0.734378 27.3562 0.990644C27.3562 1.24691 27.564 1.45472 27.8203 1.45472H30.3194V2.67557H29.0813H15.6495C15.3435 2.22108 14.9774 1.8104 14.5628 1.45478H25.6546C25.9109 1.45478 26.1187 1.24703 26.1187 0.990705C26.1187 0.734378 25.9109 0.526631 25.6546 0.526631H13.1014C12.3481 0.188401 11.5135 0 10.6357 0C9.7579 0 8.92337 0.188401 8.17001 0.526631H0.464258C0.207991 0.526631 0.000183091 0.734439 0.000183091 0.990705V3.13964C0.000183091 3.39591 0.207991 3.60372 0.464258 3.60372H1.70238V19.8349C1.70238 20.0912 1.91019 20.299 2.16645 20.299C2.42272 20.299 2.63053 20.0912 2.63053 19.8349V3.60372H5.10934C4.74731 4.42171 4.56122 5.33436 4.60077 6.29351C4.73199 9.47996 7.35763 12.0333 10.5464 12.0797C13.9177 12.1286 16.6758 9.40044 16.6758 6.04023C16.6758 5.17372 16.492 4.34939 16.162 3.60378H28.6172V28.1289H27.5418V20.8662C27.5418 20.6099 27.334 20.4021 27.0778 20.4021H19.0891C18.8329 20.4021 18.6251 20.6099 18.6251 20.8662V28.1289H2.63053V22.0008C2.63053 21.7445 2.42272 21.5367 2.16645 21.5367C1.91019 21.5367 1.70238 21.7444 1.70238 22.0008V28.1289H0.464075C0.207808 28.1289 0 28.3368 0 28.593V30.742C0 30.9982 0.207808 31.206 0.464075 31.206H30.7833C31.0395 31.206 31.2473 30.9982 31.2473 30.742V28.593C31.2473 28.3368 31.0395 28.1289 30.7833 28.1289H29.5453V3.60372H30.7835ZM2.16645 2.67557H0.928332V1.45472H6.70858C6.29387 1.8104 5.92769 2.22108 5.62181 2.67551L2.16645 2.67557ZM10.6357 11.1522C7.81695 11.1522 5.52367 8.85892 5.52367 6.04017C5.52367 3.22143 7.81695 0.928149 10.6357 0.928149C13.4544 0.928149 15.7477 3.22143 15.7477 6.04017C15.7477 8.85892 13.4544 11.1522 10.6357 11.1522ZM19.5532 21.3303H26.6137V22.2894H19.5532V21.3303ZM26.6137 23.2174V28.1288H23.5475V23.2174H26.6137ZM19.5532 23.2175H22.6194V28.1289H19.5532V23.2175ZM30.3192 29.0571V30.2779H0.928149V29.0571H30.3192Z" fill="#F6C945"/>
<path d="M22.1048 13.0238H19.0892C18.8329 13.0238 18.6251 13.2316 18.6251 13.4879V18.9945C18.6251 19.2508 18.8329 19.4586 19.0892 19.4586H22.1048C22.361 19.4586 22.5688 19.2508 22.5688 18.9945V13.4879C22.5688 13.2316 22.361 13.0238 22.1048 13.0238ZM21.6407 18.5304H19.5533V15.7153H21.6407V18.5304ZM21.6407 14.7872H19.5533V13.952H21.6407V14.7872Z" fill="#F6C945"/>
<path d="M12.1586 13.0238H9.14303C8.88676 13.0238 8.67896 13.2316 8.67896 13.4879V18.9945C8.67896 19.2508 8.8867 19.4586 9.14303 19.4586H12.1586C12.4149 19.4586 12.6227 19.2508 12.6227 18.9945V13.4879C12.6226 13.2316 12.4149 13.0238 12.1586 13.0238ZM11.6945 18.5304H9.6071V15.7153H11.6945V18.5304ZM11.6945 14.7872H9.6071V13.952H11.6945V14.7872Z" fill="#F6C945"/>
<path d="M27.4796 13H24.4641C24.2078 13 24 13.2078 24 13.4641V18.9707C24 19.227 24.2078 19.4348 24.4641 19.4348H27.4796C27.7359 19.4348 27.9437 19.227 27.9437 18.9707V13.4641C27.9437 13.2077 27.736 13 27.4796 13ZM24.9281 13.9281H27.0155V14.7634H24.9281V13.9281ZM27.0156 18.5066H24.9281V15.6915H27.0156V18.5066Z" fill="#F6C945"/>
<path d="M17.1316 13.0238H14.1161C13.8598 13.0238 13.652 13.2316 13.652 13.4879V18.9945C13.652 19.2508 13.8597 19.4586 14.1161 19.4586H17.1316C17.3879 19.4586 17.5957 19.2508 17.5957 18.9945V13.4879C17.5957 13.2316 17.3879 13.0238 17.1316 13.0238ZM16.6675 18.5304H14.5801V15.7153H16.6675V18.5304ZM16.6675 14.7872H14.5801V13.952H16.6675V14.7872Z" fill="#F6C945"/>
<path d="M7.18552 13.0238H4.16995C3.91368 13.0238 3.70587 13.2316 3.70587 13.4879V18.9945C3.70587 19.2508 3.91362 19.4586 4.16995 19.4586H7.18552C7.44178 19.4586 7.64959 19.2508 7.64959 18.9945V13.4879C7.64959 13.2316 7.44178 13.0238 7.18552 13.0238ZM6.72144 18.5304H4.63402V15.7153H6.72144V18.5304ZM6.72144 14.7872H4.63402V13.952H6.72144V14.7872Z" fill="#F6C945"/>
<path d="M12.1586 20.4021H9.14303C8.88676 20.4021 8.67896 20.6099 8.67896 20.8662V26.3728C8.67896 26.6291 8.8867 26.8369 9.14303 26.8369H12.1586C12.4149 26.8369 12.6227 26.6291 12.6227 26.3728V20.8662C12.6226 20.6099 12.4149 20.4021 12.1586 20.4021ZM11.6945 25.9087H9.6071V23.0934H11.6945V25.9087ZM11.6945 22.1653H9.6071V21.3302H11.6945V22.1653Z" fill="#F6C945"/>
<path d="M17.5957 20.8665V20.8662C17.5957 20.6099 17.3879 20.4021 17.1316 20.4021H14.1161C13.8598 20.4021 13.652 20.6099 13.652 20.8662V26.3728C13.652 26.6291 13.8598 26.8369 14.1161 26.8369H17.1316C17.3879 26.8369 17.5957 26.6291 17.5957 26.3728V22.6323C17.5957 22.6313 17.5958 22.6303 17.5958 22.6293V20.8664H17.5957V20.8665ZM16.6675 25.9087H14.5801V23.0934H16.6675V25.9087ZM16.6675 22.1653H14.5801V21.3302H16.6675V22.1653Z" fill="#F6C945"/>
<path d="M7.18552 20.4021H4.16995C3.91368 20.4021 3.70587 20.6099 3.70587 20.8662V26.3728C3.70587 26.6291 3.91362 26.8369 4.16995 26.8369H7.18552C7.44178 26.8369 7.64959 26.6291 7.64959 26.3728V20.8662C7.64959 20.6099 7.44178 20.4021 7.18552 20.4021ZM6.72144 25.9087H4.63402V23.0934H6.72144V25.9087ZM6.72144 22.1653H4.63402V21.3302H6.72144V22.1653Z" fill="#F6C945"/>
<path d="M22.1048 5.64551H19.0892C18.8329 5.64551 18.6251 5.85332 18.6251 6.10958V11.6162C18.6251 11.8726 18.8329 12.0804 19.0892 12.0804H22.1048C22.361 12.0804 22.5688 11.8726 22.5688 11.6163V6.10958C22.5688 5.85325 22.361 5.64551 22.1048 5.64551ZM21.6407 11.1522H19.5533V8.33731H21.6407V11.1522ZM21.6407 7.4091H19.5533V6.57366H21.6407V7.4091Z" fill="#F6C945"/>
<path d="M27.0778 5.64551H24.0622C23.806 5.64551 23.5981 5.85332 23.5981 6.10958V11.6162C23.5981 11.8726 23.806 12.0804 24.0622 12.0804H27.0778C27.3341 12.0804 27.5419 11.8726 27.5419 11.6163V6.10958C27.5419 5.85325 27.3341 5.64551 27.0778 5.64551ZM24.5263 6.57366H26.6137V7.4091H24.5263V6.57366ZM26.6137 11.1522H24.5263V8.33731H26.6137V11.1522Z" fill="#F6C945"/>
</svg>
