<svg width="28" height="31" viewBox="0 0 28 31" fill="none" xmlns="http://www.w3.org/2000/svg">
<path d="M9.94683 5.30353C9.94683 5.02008 9.71703 4.79028 9.43358 4.79028H5.73822C5.45477 4.79028 5.22498 5.02008 5.22498 5.30353V8.72516C5.22498 9.00861 5.45477 9.23841 5.73822 9.23841H9.43358C9.71703 9.23841 9.94683 9.00861 9.94683 8.72516V5.30353ZM8.92034 8.21192H6.25147V5.81677H8.92034V8.21192Z" fill="#F6C945"/>
<path d="M22.6753 5.30353C22.6753 5.02008 22.4455 4.79028 22.162 4.79028H18.4667C18.1832 4.79028 17.9534 5.02008 17.9534 5.30353V8.72516C17.9534 9.00861 18.1832 9.23841 18.4667 9.23841H22.162C22.4455 9.23841 22.6753 9.00861 22.6753 8.72516V5.30353ZM21.6488 8.21192H18.9799V5.81677H21.6488V8.21192Z" fill="#F6C945"/>
<path d="M16.311 5.30353C16.311 5.02008 16.0812 4.79028 15.7978 4.79028H12.1024C11.819 4.79028 11.5892 5.02008 11.5892 5.30353V8.72516C11.5892 9.00861 11.819 9.23841 12.1024 9.23841H15.7978C16.0812 9.23841 16.311 9.00861 16.311 8.72516V5.30353ZM15.2845 8.21192H12.6157V5.81677H15.2845V8.21192Z" fill="#F6C945"/>
<path d="M9.94683 11.1888C9.94683 10.9053 9.71703 10.6755 9.43358 10.6755H5.73822C5.45477 10.6755 5.22498 10.9053 5.22498 11.1888V14.6104C5.22498 14.8939 5.45477 15.1237 5.73822 15.1237H9.43358C9.71703 15.1237 9.94683 14.8939 9.94683 14.6104V11.1888ZM8.92034 14.0972H6.25147V11.702H8.92034V14.0972Z" fill="#F6C945"/>
<path d="M22.6753 11.1888C22.6753 10.9053 22.4455 10.6755 22.162 10.6755H18.4667C18.1832 10.6755 17.9534 10.9053 17.9534 11.1888V14.6104C17.9534 14.8939 18.1832 15.1237 18.4667 15.1237H22.162C22.4455 15.1237 22.6753 14.8939 22.6753 14.6104V11.1888ZM21.6488 14.0972H18.9799V11.702H21.6488V14.0972Z" fill="#F6C945"/>
<path d="M16.311 11.1888C16.311 10.9053 16.0812 10.6755 15.7978 10.6755H12.1024C11.819 10.6755 11.5892 10.9053 11.5892 11.1888V14.6104C11.5892 14.8939 11.819 15.1237 12.1024 15.1237H15.7978C16.0812 15.1237 16.311 14.8939 16.311 14.6104V11.1888ZM15.2845 14.0972H12.6157V11.702H15.2845V14.0972Z" fill="#F6C945"/>
<path d="M9.43358 16.6292H5.73822C5.45477 16.6292 5.22498 16.8589 5.22498 17.1424V20.564C5.22498 20.8475 5.45477 21.0773 5.73822 21.0773H9.43358C9.71703 21.0773 9.94683 20.8475 9.94683 20.564V17.1424C9.94683 16.8589 9.71703 16.6292 9.43358 16.6292ZM8.92034 20.0508H6.25147V17.6556H8.92034V20.0508Z" fill="#F6C945"/>
<path d="M22.162 16.6292H18.4667C18.1832 16.6292 17.9534 16.8589 17.9534 17.1424V20.564C17.9534 20.8475 18.1832 21.0773 18.4667 21.0773H22.162C22.4455 21.0773 22.6753 20.8475 22.6753 20.564V17.1424C22.6753 16.8589 22.4455 16.6292 22.162 16.6292ZM21.6488 20.0508H18.9799V17.6556H21.6488V20.0508Z" fill="#F6C945"/>
<path d="M15.7978 16.6292H12.1024C11.819 16.6292 11.5892 16.8589 11.5892 17.1424V20.564C11.5892 20.8475 11.819 21.0773 12.1024 21.0773H15.7978C16.0812 21.0773 16.311 20.8475 16.311 20.564V17.1424C16.311 16.8589 16.0812 16.6292 15.7978 16.6292ZM15.2845 20.0508H12.6157V17.6556H15.2845V20.0508Z" fill="#F6C945"/>
<path d="M26.2921 27.7837H25.2073V2.56622C25.2073 2.28278 24.9775 2.05298 24.6941 2.05298H22.7359C22.4524 2.05298 22.2226 2.28278 22.2226 2.56622C22.2226 2.84967 22.4524 3.07947 22.7359 3.07947H24.1808V27.7837H20.6907V22.8223C20.6907 22.5388 20.4609 22.309 20.1775 22.309H16.7032C16.4198 22.309 16.19 22.5388 16.19 22.8223C16.19 23.1057 16.4198 23.3355 16.7032 23.3355H17.3375V27.7837H10.5627V23.3355H14.4923C14.7758 23.3355 15.0056 23.1057 15.0056 22.8223C15.0056 22.5388 14.7758 22.309 14.4923 22.309H7.72275C7.43931 22.309 7.20951 22.5388 7.20951 22.8223V27.7837H3.71944V24.5313C3.71944 24.2479 3.48965 24.0181 3.2062 24.0181C2.92275 24.0181 2.69295 24.2479 2.69295 24.5313V27.7837H1.60817C0 27.7837 0 27.7837 0 29.3918C0 30.9823 0 31 1.60817 31H26.2921C27.9003 30.9823 27.9003 30.9645 27.9003 29.3918C27.9003 27.8191 27.9003 27.7837 26.2921 27.7837ZM18.364 23.3355H19.6643V27.7837H18.364V23.3355ZM8.236 23.3355H9.53622V27.7837H8.236V23.3355ZM26.2921 29.9735H1.60817C1.02649 29.9735 1.02649 29.9735 1.02649 29.3918C1.02649 28.8102 1.02649 28.8102 1.60817 28.8102H26.2921C26.8738 28.8102 26.8738 28.8102 26.8738 29.3918C26.8738 29.9735 26.8738 29.9735 26.2921 29.9735Z" fill="#F6C945"/>
<path d="M3.20618 22.8688C3.48963 22.8688 3.71942 22.639 3.71942 22.3556V3.07947H20.4617C20.7452 3.07947 20.975 2.84967 20.975 2.56622C20.975 2.28278 20.7452 2.05298 20.4617 2.05298H10.0837V0.513245C10.0837 0.229797 9.85386 0 9.57042 0H5.46446C5.18101 0 4.95121 0.229797 4.95121 0.513245V2.05298H3.20618C2.92273 2.05298 2.69293 2.28278 2.69293 2.56622V22.3556C2.69293 22.639 2.92273 22.8688 3.20618 22.8688ZM5.9777 1.02649H9.05717V2.05298H5.9777V1.02649Z" fill="#F6C945"/>
</svg>
