<svg width="24" height="26" viewBox="0 0 24 26" fill="none" xmlns="http://www.w3.org/2000/svg">
<path d="M5.99383 4.57043H4.17097C3.88337 4.57043 3.65015 4.80366 3.65015 5.09126V7.95576C3.65015 8.24336 3.88337 8.47658 4.17097 8.47658H5.99383C6.28143 8.47658 6.51465 8.24336 6.51465 7.95576V5.09126C6.51465 4.80366 6.28143 4.57043 5.99383 4.57043ZM5.473 7.43494H4.69174V5.61208H5.473V7.43494Z" fill="#B4B4B4"/>
<path d="M9.63958 4.57043H7.81672C7.52912 4.57043 7.2959 4.80366 7.2959 5.09126V7.95576C7.2959 8.24336 7.52912 8.47658 7.81672 8.47658H9.63958C9.92718 8.47658 10.1604 8.24336 10.1604 7.95576V5.09126C10.1604 4.80366 9.92718 4.57043 9.63958 4.57043ZM9.11876 7.43494H8.33754V5.61208H9.11876V7.43494Z" fill="#B4B4B4"/>
<path d="M5.99383 9.67444H4.17097C3.88337 9.67444 3.65015 9.90766 3.65015 10.1953V13.0598C3.65015 13.3474 3.88337 13.5806 4.17097 13.5806H5.99383C6.28143 13.5806 6.51465 13.3474 6.51465 13.0598V10.1953C6.51465 9.90771 6.28143 9.67444 5.99383 9.67444ZM5.473 12.539H4.69174V10.7161H5.473V12.539Z" fill="#B4B4B4"/>
<path d="M9.63958 9.67444H7.81672C7.52912 9.67444 7.2959 9.90766 7.2959 10.1953V13.0598C7.2959 13.3474 7.52912 13.5806 7.81672 13.5806H9.63958C9.92718 13.5806 10.1604 13.3474 10.1604 13.0598V10.1953C10.1604 9.90771 9.92718 9.67444 9.63958 9.67444ZM9.11876 12.539H8.33754V10.7161H9.11876V12.539Z" fill="#B4B4B4"/>
<path d="M5.99383 14.7784H4.17097C3.88337 14.7784 3.65015 15.0117 3.65015 15.2993V18.1638C3.65015 18.4514 3.88337 18.6846 4.17097 18.6846H5.99383C6.28143 18.6846 6.51465 18.4514 6.51465 18.1638V15.2993C6.51465 15.0117 6.28143 14.7784 5.99383 14.7784ZM5.473 17.643H4.69174V15.8201H5.473V17.643Z" fill="#B4B4B4"/>
<path d="M9.63958 14.7784H7.81672C7.52912 14.7784 7.2959 15.0117 7.2959 15.2993V18.1638C7.2959 18.4514 7.52912 18.6846 7.81672 18.6846H9.63958C9.92718 18.6846 10.1604 18.4514 10.1604 18.1638V15.2993C10.1604 15.0117 9.92718 14.7784 9.63958 14.7784ZM9.11876 17.643H8.33754V15.8201H9.11876V17.643Z" fill="#B4B4B4"/>
<path d="M5.99383 19.8826H4.17097C3.88337 19.8826 3.65015 20.1158 3.65015 20.4034V23.2679C3.65015 23.5555 3.88337 23.7887 4.17097 23.7887H5.99383C6.28143 23.7887 6.51465 23.5555 6.51465 23.2679V20.4034C6.51465 20.1158 6.28143 19.8826 5.99383 19.8826ZM5.473 22.7471H4.69174V20.9243H5.473V22.7471Z" fill="#B4B4B4"/>
<path d="M9.63958 19.8826H7.81672C7.52912 19.8826 7.2959 20.1158 7.2959 20.4034V23.2679C7.2959 23.5555 7.52912 23.7887 7.81672 23.7887H9.63958C9.92718 23.7887 10.1604 23.5555 10.1604 23.2679V20.4034C10.1604 20.1158 9.92718 19.8826 9.63958 19.8826ZM9.11876 22.7471H8.33754V20.9243H9.11876V22.7471Z" fill="#B4B4B4"/>
<path d="M18.8431 21.5383H18.8338C18.5462 21.5383 18.313 21.7716 18.313 22.0592C18.313 22.3468 18.5462 22.58 18.8338 22.58H18.8431C19.1307 22.58 19.364 22.3468 19.364 22.0592C19.364 21.7716 19.1307 21.5383 18.8431 21.5383Z" fill="#B4B4B4"/>
<path d="M18.8431 9.25671H18.8338C18.5462 9.25671 18.313 9.48993 18.313 9.77754C18.313 10.0651 18.5462 10.2984 18.8338 10.2984H18.8431C19.1307 10.2984 19.364 10.0651 19.364 9.77754C19.364 9.48993 19.1307 9.25671 18.8431 9.25671Z" fill="#B4B4B4"/>
<path d="M18.8431 11.7131H18.8338C18.5462 11.7131 18.313 11.9464 18.313 12.234C18.313 12.5216 18.5462 12.7548 18.8338 12.7548H18.8431C19.1307 12.7548 19.364 12.5216 19.364 12.234C19.364 11.9464 19.1307 11.7131 18.8431 11.7131Z" fill="#B4B4B4"/>
<path d="M18.8431 14.1694H18.8338C18.5462 14.1694 18.313 14.4027 18.313 14.6903C18.313 14.9779 18.5462 15.2111 18.8338 15.2111H18.8431C19.1307 15.2111 19.364 14.9779 19.364 14.6903C19.364 14.4027 19.1307 14.1694 18.8431 14.1694Z" fill="#B4B4B4"/>
<path d="M18.8431 16.6257H18.8338C18.5462 16.6257 18.313 16.859 18.313 17.1466C18.313 17.4342 18.5462 17.6674 18.8338 17.6674H18.8431C19.1307 17.6674 19.364 17.4342 19.364 17.1466C19.364 16.859 19.1307 16.6257 18.8431 16.6257Z" fill="#B4B4B4"/>
<path d="M18.8431 19.082H18.8338C18.5462 19.082 18.313 19.3153 18.313 19.6029C18.313 19.8905 18.5462 20.1237 18.8338 20.1237H18.8431C19.1307 20.1237 19.364 19.8905 19.364 19.6029C19.364 19.3153 19.1307 19.082 18.8431 19.082Z" fill="#B4B4B4"/>
<path d="M22.7599 24.9585H21.3336V7.30638C21.3336 7.01878 21.1004 6.78556 20.8128 6.78556H12.1655V3.24018C12.1655 2.99869 11.9995 2.78884 11.7645 2.73332L2.28551 0.493761C2.13055 0.457274 1.96741 0.493461 1.84255 0.592253C1.71764 0.690945 1.64491 0.841425 1.64491 1.00063V24.9585H0.520823C0.233222 24.9585 0 25.1917 0 25.4793C0 25.7669 0.233222 26.0001 0.520823 26.0001H22.7599C23.0475 26.0001 23.2807 25.7669 23.2807 25.4793C23.2807 25.1917 23.0475 24.9585 22.7599 24.9585ZM11.1239 7.30638V24.9585H2.68656V1.65877L11.1239 3.6522V7.30638ZM20.292 24.9585H12.1655V22.5801H17.0439C17.3315 22.5801 17.5647 22.3469 17.5647 22.0593C17.5647 21.7717 17.3315 21.5384 17.0439 21.5384H12.1655V20.1238H17.0439C17.3315 20.1238 17.5647 19.8906 17.5647 19.603C17.5647 19.3154 17.3315 19.0822 17.0439 19.0822H12.1655V17.6674H17.0439C17.3315 17.6674 17.5647 17.4342 17.5647 17.1466C17.5647 16.859 17.3315 16.6258 17.0439 16.6258H12.1655V15.2111H17.0439C17.3315 15.2111 17.5647 14.9779 17.5647 14.6903C17.5647 14.4027 17.3315 14.1694 17.0439 14.1694H12.1655V12.7548H17.0439C17.3315 12.7548 17.5647 12.5215 17.5647 12.2339C17.5647 11.9463 17.3315 11.7131 17.0439 11.7131H12.1655V10.2984H17.0439C17.3315 10.2984 17.5647 10.0652 17.5647 9.77762C17.5647 9.49001 17.3315 9.25679 17.0439 9.25679H12.1655V7.82721H20.2919V24.9585H20.292Z" fill="#B4B4B4"/>
</svg>
