<svg width="24" height="24" viewBox="0 0 24 24" fill="none" xmlns="http://www.w3.org/2000/svg">
<path d="M23.5376 23.075H21.5022V19.4205C21.5022 19.165 21.2951 18.9579 21.0396 18.9579C20.7842 18.9579 20.577 19.165 20.577 19.4205V23.075H15.0259V14.2857C15.0259 14.0303 14.8188 13.8231 14.5633 13.8231H9.75236C9.49692 13.8231 9.28977 14.0303 9.28977 14.2857V23.075H3.73867V12.6204H3.91668C4.03935 12.6204 4.15699 12.5716 4.24377 12.4849L12.1578 4.5708L20.0719 12.4849C20.1587 12.5716 20.2763 12.6204 20.399 12.6204H20.577V16.0898C20.577 16.3453 20.7842 16.5524 21.0396 16.5524C21.2951 16.5524 21.5022 16.3453 21.5022 16.0898V12.6204H23.5376C23.7247 12.6204 23.8934 12.5076 23.965 12.3348C24.0366 12.162 23.997 11.963 23.8647 11.8307L12.4849 0.450911C12.3043 0.270269 12.0114 0.270269 11.8307 0.450911L7.48233 4.79928C7.30169 4.97992 7.30169 5.27283 7.48233 5.45347C7.66302 5.63416 7.95594 5.63416 8.13658 5.45347L12.1578 1.43221L22.4208 11.6952H20.5906L12.4849 3.5895C12.3043 3.40886 12.0114 3.40886 11.8307 3.5895L3.72502 11.6952H1.89487L5.54606 8.04403C5.7267 7.86339 5.7267 7.57048 5.54606 7.38979C5.36542 7.20919 5.07251 7.20915 4.89182 7.38979L0.450937 11.8307C0.318682 11.963 0.279037 12.1619 0.350647 12.3348C0.422256 12.5077 0.590963 12.6204 0.778082 12.6204H2.81349V23.0749H0.778082C0.522638 23.0749 0.31549 23.282 0.31549 23.5375C0.31549 23.793 0.522638 24.0001 0.778082 24.0001H3.27608H9.75236H14.5633H21.0396H23.5376C23.793 24.0001 24.0002 23.793 24.0002 23.5375C24.0002 23.282 23.793 23.075 23.5376 23.075ZM14.1007 23.075H10.215V14.7483H14.1007V23.075Z" fill="#B4B4B4"/>
<path d="M19.0968 13.8231H16.5063C16.2508 13.8231 16.0437 14.0302 16.0437 14.2857V18.9116C16.0437 19.1671 16.2508 19.3742 16.5063 19.3742H19.0968C19.3523 19.3742 19.5594 19.1671 19.5594 18.9116V14.2857C19.5594 14.0302 19.3523 13.8231 19.0968 13.8231ZM18.6342 18.449H16.9689V14.7483H18.6342V18.449Z" fill="#B4B4B4"/>
<path d="M7.80945 13.8231H5.21894C4.9635 13.8231 4.75635 14.0302 4.75635 14.2857V18.9116C4.75635 19.1671 4.9635 19.3742 5.21894 19.3742H7.80945C8.0649 19.3742 8.27205 19.1671 8.27205 18.9116V14.2857C8.27205 14.0302 8.0649 13.8231 7.80945 13.8231ZM7.34686 18.449H5.68153V14.7483H7.34686V18.449Z" fill="#B4B4B4"/>
<path d="M12.158 7.91675C10.9846 7.91675 10.03 8.87135 10.03 10.0447C10.03 11.218 10.9846 12.1726 12.158 12.1726C13.3313 12.1726 14.2859 11.218 14.2859 10.0447C14.2859 8.87135 13.3313 7.91675 12.158 7.91675ZM12.158 11.2474C11.4947 11.2474 10.9552 10.7078 10.9552 10.0447C10.9552 9.3815 11.4947 8.84193 12.158 8.84193C12.8212 8.84193 13.3607 9.3815 13.3607 10.0447C13.3607 10.7078 12.8212 11.2474 12.158 11.2474Z" fill="#B4B4B4"/>
<path d="M11.606 18.5846C11.52 18.4986 11.4006 18.4491 11.279 18.4491C11.1573 18.4491 11.038 18.4986 10.9519 18.5846C10.8659 18.6707 10.8164 18.79 10.8164 18.9117C10.8164 19.0334 10.8659 19.1527 10.9519 19.2387C11.038 19.3248 11.1573 19.3743 11.279 19.3743C11.4007 19.3743 11.52 19.3248 11.606 19.2387C11.692 19.1527 11.7416 19.0334 11.7416 18.9117C11.7416 18.79 11.6921 18.6707 11.606 18.5846Z" fill="#B4B4B4"/>
<path d="M6.79497 6.14091C6.70897 6.05487 6.58962 6.00537 6.46796 6.00537C6.3463 6.00537 6.22695 6.05487 6.14091 6.14091C6.05487 6.22695 6.00537 6.3463 6.00537 6.46796C6.00537 6.58962 6.05482 6.70897 6.14091 6.79502C6.227 6.88106 6.3463 6.93055 6.46796 6.93055C6.58962 6.93055 6.70897 6.88106 6.79497 6.79502C6.88101 6.70897 6.93056 6.58962 6.93056 6.46796C6.93056 6.3463 6.88106 6.22695 6.79497 6.14091Z" fill="#B4B4B4"/>
<path d="M21.3665 17.3046C21.2805 17.2186 21.1611 17.1691 21.0395 17.1691C20.9178 17.1691 20.7985 17.2186 20.7124 17.3046C20.6264 17.3911 20.5769 17.51 20.5769 17.6317C20.5769 17.7533 20.6264 17.8727 20.7124 17.9592C20.7985 18.0452 20.9178 18.0943 21.0395 18.0943C21.1612 18.0943 21.2805 18.0452 21.3665 17.9592C21.4525 17.8727 21.5021 17.7538 21.5021 17.6317C21.5021 17.51 21.4526 17.3906 21.3665 17.3046Z" fill="#B4B4B4"/>
</svg>
