<svg width="19" height="18" viewBox="0 0 19 18" fill="none" xmlns="http://www.w3.org/2000/svg">
<path d="M15.2597 11.2606C14.6092 10.6183 13.797 10.6183 13.1506 11.2606C12.6576 11.7495 12.1645 12.2385 11.6797 12.7357C11.5471 12.8724 11.4352 12.9014 11.2736 12.8103C10.9546 12.6363 10.6148 12.4954 10.3082 12.3048C8.87864 11.4056 7.68116 10.2496 6.62041 8.9485C6.09418 8.30211 5.62596 7.61014 5.29862 6.83115C5.23232 6.67369 5.24475 6.57011 5.3732 6.44166C5.86629 5.96515 6.34694 5.47621 6.83173 4.98727C7.50713 4.30773 7.50713 3.51217 6.82759 2.82849C6.44224 2.43899 6.05689 2.05779 5.67154 1.6683C5.27376 1.27051 4.88012 0.868591 4.4782 0.474955C3.82766 -0.159007 3.01553 -0.159007 2.36914 0.479098C1.87191 0.968036 1.3954 1.4694 0.889893 1.95006C0.421673 2.39341 0.185491 2.93622 0.135768 3.57018C0.057041 4.60192 0.309797 5.57566 0.666142 6.52453C1.3954 8.48857 2.50587 10.233 3.85252 11.8324C5.67154 13.9953 7.84276 15.7066 10.3827 16.9414C11.5264 17.4966 12.7114 17.9234 14.0001 17.9939C14.8868 18.0436 15.6575 17.8198 16.2749 17.1279C16.6975 16.6555 17.174 16.2246 17.6215 15.7729C18.2845 15.1017 18.2886 14.2895 17.6298 13.6266C16.8425 12.8351 16.0511 12.0479 15.2597 11.2606Z" fill="#F6C945"/>
</svg>
