<svg width="36" height="31" viewBox="0 0 36 31" fill="none" xmlns="http://www.w3.org/2000/svg">
<path d="M15.4899 1.40414C15.2003 1.40414 14.934 1.22006 14.8317 0.949009C14.7267 0.670712 14.813 0.345868 15.0437 0.157641C15.2749 -0.0310774 15.6069 -0.0522414 15.8606 0.104345C16.1139 0.260579 16.2421 0.571852 16.174 0.861259C16.1003 1.17478 15.8122 1.40414 15.4899 1.40414Z" fill="#F6C945"/>
<path d="M18.347 15.4877C18.347 14.1546 17.4294 13.032 16.1927 12.7179V9.07428C16.1927 8.68601 15.8778 8.37115 15.4895 8.37115C15.1013 8.37115 14.7864 8.68601 14.7864 9.07428V12.7179C14.3758 12.8221 14.0003 13.0156 13.682 13.2764L10.3821 9.6964C10.1188 9.41087 9.67412 9.39265 9.38858 9.65597C9.10297 9.91915 9.08497 10.364 9.34815 10.6495L12.8345 14.4317C12.7041 14.7585 12.6322 15.1149 12.6322 15.4877C12.6322 17.0633 13.914 18.3451 15.4896 18.3451C15.9705 18.3451 16.424 18.2257 16.8221 18.0149L20.3646 21.5575C20.502 21.6947 20.6819 21.7634 20.8618 21.7634C21.0418 21.7634 21.2217 21.6947 21.359 21.5575C21.6336 21.2829 21.6336 20.8377 21.359 20.5631L17.867 17.0711C18.17 16.6176 18.347 16.073 18.347 15.4877ZM14.0384 15.4877C14.0384 14.6875 14.6894 14.0365 15.4895 14.0365C16.2897 14.0365 16.9407 14.6875 16.9407 15.4877C16.9407 16.2878 16.2897 16.9389 15.4895 16.9389C14.6894 16.9389 14.0384 16.2878 14.0384 15.4877Z" fill="#F6C945"/>
<path d="M32.9764 18.7341C33.8906 17.6026 34.3941 16.1769 34.3941 14.7195V14.2418H35.2969C35.6851 14.2418 36 13.9269 36 13.5387V10.2596C36 9.87138 35.6851 9.55652 35.2969 9.55652H29.8027C28.8738 7.31861 27.4122 5.30549 25.5637 3.72142C23.6308 2.06493 21.3012 0.902101 18.8267 0.358656C18.4475 0.275828 18.0724 0.515383 17.9891 0.894578C17.9058 1.27391 18.1458 1.64889 18.525 1.73221C22.8339 2.67862 26.4211 5.57641 28.2674 9.55652H26.3722C24.1896 5.56354 20.0387 3.09191 15.4896 3.09191C8.65448 3.09191 3.09375 8.65265 3.09375 15.4877C3.09375 22.3227 8.65448 27.8834 15.4895 27.8834C17.054 27.8834 18.5783 27.5941 20.0043 27.0344V28.8319C18.5545 29.3225 17.0376 29.571 15.4895 29.571C7.72397 29.5709 1.40625 23.2533 1.40625 15.4877C1.40625 8.92855 6.04793 3.14451 12.4431 1.73467C12.8223 1.65107 13.062 1.27588 12.9784 0.896617C12.8947 0.517422 12.5197 0.277445 12.1403 0.361398C8.74962 1.10896 5.66909 3.0126 3.46605 5.72167C1.23096 8.47026 0 11.9386 0 15.4877C0 19.6251 1.61121 23.5148 4.5367 26.4404C7.46227 29.3659 11.3521 30.9771 15.4894 30.9771C17.0321 30.9771 18.5471 30.7525 20.005 30.3085C20.023 30.6809 20.3306 30.9771 20.7073 30.9771H35.2969C35.6851 30.9771 36 30.6623 36 30.274V26.995C36 26.6067 35.6851 26.2919 35.2969 26.2919H34.3941V25.8142C34.3941 24.3568 33.8906 22.9311 32.9764 21.7995C32.475 21.179 31.8617 20.6598 31.1767 20.2668C31.8618 19.8739 32.475 19.3546 32.9764 18.7341ZM34.5938 12.8356H21.4105V10.9628H34.5938V12.8356ZM30.2832 14.2419C30.2804 14.6282 30.2759 15.0171 30.269 15.1006C30.0829 16.2117 29.1299 17.018 28.0021 17.018C26.8753 17.018 25.9229 16.2132 25.7352 15.1009C25.7283 15.0174 25.7238 14.6284 25.721 14.2419H30.2832ZM20.7074 9.55659C20.3191 9.55659 20.0043 9.87145 20.0043 10.2597V13.5387C20.0043 13.927 20.3191 14.2419 20.7074 14.2419H21.6101V14.7196C21.6101 16.1769 22.1136 17.6027 23.0279 18.7342C23.5293 19.3547 24.1426 19.874 24.8276 20.2669C24.1426 20.6599 23.5293 21.1792 23.0279 21.7997C22.3876 22.5921 21.9489 23.5287 21.7433 24.5195C20.0925 25.6669 18.1896 26.3292 16.1926 26.4551V25.7685C16.1926 25.3802 15.8778 25.0653 15.4895 25.0653C15.1012 25.0653 14.7864 25.3802 14.7864 25.7685V26.455C12.2846 26.2963 10.0075 25.2966 8.23542 23.7362L8.71713 23.2545C8.9917 22.9799 8.9917 22.5347 8.71713 22.2601C8.44249 21.9856 7.99741 21.9856 7.7227 22.2601L7.24099 22.7418C5.68069 20.9697 4.68098 18.6926 4.52222 16.1909H5.20875C5.59702 16.1909 5.91188 15.876 5.91188 15.4877C5.91188 15.0995 5.59702 14.7846 5.20875 14.7846H4.52222C4.68091 12.2828 5.68062 10.0057 7.24099 8.23366L7.7227 8.71537C7.86002 8.85262 8.03995 8.92131 8.21988 8.92131C8.39981 8.92131 8.57974 8.85262 8.71706 8.71537C8.99163 8.4408 8.99163 7.99558 8.71706 7.72094L8.23535 7.23923C10.0074 5.67892 12.2845 4.67922 14.7863 4.52045V5.20698C14.7863 5.59525 15.1012 5.91011 15.4894 5.91011C15.8777 5.91011 16.1925 5.59525 16.1925 5.20698V4.52052C18.6512 4.67676 20.9448 5.64777 22.7469 7.23592L22.2619 7.72094C21.9874 7.99551 21.9874 8.44066 22.2619 8.7153C22.3992 8.85255 22.5792 8.92124 22.7591 8.92124C22.939 8.92124 23.119 8.85255 23.2563 8.7153L23.7402 8.23127C24.1026 8.64407 24.4365 9.08662 24.7381 9.55659H20.7074ZM34.5938 29.5709H21.4105V27.6981H34.5938V29.5709ZM29.1128 19.5812C28.7927 19.654 28.5656 19.9386 28.5656 20.2669C28.5656 20.5952 28.7927 20.8797 29.1128 20.9525C31.3944 21.4713 32.9879 23.4705 32.9879 25.8142V26.2919H23.0164V25.8142C23.0164 23.4705 24.6099 21.4713 26.8914 20.9525C27.2116 20.8797 27.4387 20.5952 27.4387 20.2669C27.4387 19.9386 27.2116 19.654 26.8914 19.5812C24.6099 19.0625 23.0164 17.0632 23.0164 14.7195V14.2418H24.3147C24.3213 15.1708 24.3303 15.225 24.3478 15.3302C24.6468 17.1229 26.1836 18.4241 28.0022 18.4241C29.8207 18.4241 31.3576 17.1229 31.6564 15.3307C31.674 15.2255 31.683 15.1714 31.6897 14.2418H32.988V14.7195C32.9879 17.0633 31.3944 19.0625 29.1128 19.5812Z" fill="#F6C945"/>
</svg>
