<svg width="36" height="37" viewBox="0 0 36 37" fill="none" xmlns="http://www.w3.org/2000/svg">
<path d="M0.206008 27.3584L8.6441 35.7965C8.91878 36.0712 9.36376 36.0712 9.63843 35.7965L14.2794 31.1556C14.5541 30.8809 14.5541 30.4359 14.2794 30.1612L14.0734 29.9552H24.2095C25.0998 29.9552 25.9493 29.6215 26.6044 29.0134L35.1351 21.0183C35.9517 20.2599 36.2223 19.0552 35.8081 18.0208C35.5087 17.272 34.8972 16.699 34.1309 16.4488C33.3643 16.198 32.5328 16.2996 31.8489 16.727C31.8445 16.7298 29.955 17.9697 29.955 17.9697C29.942 14.158 27.6383 10.0933 24.4672 8.2634C24.6482 8.05547 24.7905 7.80936 24.8811 7.53385C25.244 6.42993 24.6408 5.23508 23.5352 4.87003C23.5006 4.8585 23.466 4.84833 23.4314 4.83762L25.2415 1.58599C25.3456 1.39893 25.3591 1.17452 25.2775 0.976753C25.1962 0.778711 25.0292 0.628462 24.8234 0.568857C23.5256 0.19145 22.1766 0 20.814 0C19.4516 0 18.1023 0.19145 16.8045 0.568582C16.5988 0.628462 16.4318 0.778436 16.3502 0.976479C16.2689 1.17452 16.2821 1.39893 16.3864 1.58599L18.1966 4.83762C18.1614 4.84861 18.1262 4.85905 18.0911 4.87058C16.9872 5.23508 16.3842 6.42965 16.7471 7.5344C16.8377 7.80936 16.9811 8.05464 17.1627 8.26285C13.9443 10.1199 11.6727 14.2264 11.6727 18.0013C11.6727 18.1043 11.6752 18.2059 11.6785 18.3067C10.4191 18.6503 9.24812 19.2763 8.2634 20.1385L6.12641 22.0083L5.84129 21.7231C5.56661 21.4485 5.12164 21.4485 4.84696 21.7231L0.206008 26.3641C-0.0686694 26.6388 -0.0686694 27.0838 0.206008 27.3584ZM18.0598 1.70053C18.9607 1.50496 19.8836 1.40635 20.814 1.40635C21.7443 1.40635 22.6672 1.50496 23.5684 1.70053L22.0014 4.51515C21.2114 4.405 20.416 4.405 19.6268 4.51515L18.0598 1.70053ZM18.53 6.20661C19.9729 5.73444 21.546 5.69873 23.096 6.20606C23.4649 6.32775 23.6662 6.72658 23.5451 7.09465C23.4539 7.37179 23.2067 7.55995 22.9202 7.5767C21.5336 7.13585 20.0935 7.13502 18.7075 7.57533C18.7075 7.57533 18.7075 7.57533 18.7072 7.57533C18.4182 7.5572 18.1729 7.36822 18.0828 7.09492C17.9617 6.7263 18.163 6.32747 18.53 6.20661ZM18.919 8.98772C20.1383 8.54851 21.4015 8.53808 22.6238 8.95806C25.8908 10.0815 28.5489 14.1382 28.5489 18.0013C28.5489 18.3287 28.5283 18.6407 28.4876 18.9324L25.1077 21.1499C24.5845 20.5017 23.7915 20.1108 22.9235 20.1108H21.5171V19.2868C22.3357 18.9964 22.9235 18.2147 22.9235 17.2981C22.9235 16.1348 21.9772 15.1886 20.814 15.1886C20.4264 15.1886 20.1108 14.8732 20.1108 14.4854C20.1108 14.0975 20.4264 13.7822 20.814 13.7822C21.0631 13.7822 21.326 13.9094 21.5745 14.1497C21.8536 14.4197 22.2989 14.4123 22.5689 14.1335C22.8389 13.8545 22.8315 13.4092 22.5524 13.1392C22.1956 12.7937 21.8385 12.5984 21.5171 12.4918V11.6727C21.5171 11.2843 21.2024 10.9695 20.814 10.9695C20.4256 10.9695 20.1108 11.2843 20.1108 11.6727V12.4967C19.2925 12.7871 18.7044 13.5688 18.7044 14.4854C18.7044 15.6487 19.6507 16.5949 20.814 16.5949C21.2018 16.5949 21.5171 16.9102 21.5171 17.2981C21.5171 17.6859 21.2018 18.0013 20.814 18.0013C20.5135 18.0013 20.1893 17.8123 19.9009 17.4692C19.651 17.172 19.2074 17.1336 18.9102 17.3835C18.613 17.6335 18.5745 18.0771 18.8245 18.3743C19.2002 18.8215 19.6425 19.1329 20.1108 19.2901V20.1108H19.8768C19.5312 20.1108 19.376 19.8856 19.1327 19.7282C17.6469 18.6146 15.8066 18.0013 13.9503 18.0013C13.66 18.0013 13.3691 18.0164 13.0796 18.0458C13.0796 18.0309 13.079 18.0164 13.079 18.0013C13.079 14.1923 15.6989 10.1491 18.919 8.98772ZM9.18961 21.1966C10.5108 20.0396 12.2086 19.4076 13.9503 19.4076C15.5044 19.4076 17.0451 19.921 18.2883 20.853C18.4677 20.9579 18.967 21.5171 19.8765 21.5171H22.9235C23.7239 21.5171 24.3298 22.1678 24.3298 22.9235C24.3298 23.6989 23.6989 24.3298 22.9235 24.3298H18.0013C17.6129 24.3298 17.2981 24.6446 17.2981 25.033C17.2981 25.4214 17.6129 25.7362 18.0013 25.7362H22.9235C24.4743 25.7362 25.7362 24.4743 25.7362 22.9235C25.7362 22.7622 25.7219 22.6032 25.695 22.4466L32.6001 17.9161C32.9286 17.7131 33.3272 17.6656 33.6941 17.7854C34.0633 17.9062 34.358 18.1823 34.5022 18.5432C34.7052 19.0497 34.5778 19.6169 34.1756 19.9902L25.6453 27.985C25.2536 28.3486 24.7438 28.5489 24.2095 28.5489H12.667L7.12321 23.0048L9.18961 21.1966ZM5.34413 23.2146L12.7879 30.6584L9.14127 34.305L1.69751 26.8613L5.34413 23.2146Z" fill="#F6C945"/>
</svg>
