<svg width="36" height="32" viewBox="0 0 36 32" fill="none" xmlns="http://www.w3.org/2000/svg">
<path d="M24.2869 5.05412L20.8582 0.29235C20.7261 0.108834 20.5137 6.10352e-05 20.2876 6.10352e-05C20.0615 6.10352e-05 19.8491 0.108834 19.717 0.29235L16.2883 5.05412C16.2021 5.17379 16.1558 5.31751 16.1558 5.46495V5.57724V28.3946C16.1558 29.8454 17.3361 31.0258 18.7869 31.0258H21.7882C23.2391 31.0258 24.4194 29.8454 24.4194 28.3946V5.57724V5.46495C24.4194 5.31751 24.3731 5.17372 24.2869 5.05412ZM20.2876 1.90651L22.4245 4.87412H18.1508L20.2876 1.90651ZM17.562 6.28036H20.9004V24.4924H19.6745V11.062C19.6746 10.6736 19.3598 10.3588 18.9715 10.3588C18.5832 10.3588 18.2684 10.6736 18.2684 11.062V24.4923H17.562V6.28036ZM23.0132 28.3945C23.0132 29.0699 22.4637 29.6194 21.7882 29.6194H18.7869C18.1116 29.6194 17.562 29.0699 17.562 28.3945V25.8986H23.0132V28.3945ZM23.0132 24.4924H22.3068V6.28036H23.0132V24.4924Z" fill="#F6C945"/>
<path d="M19.6607 8.1009C19.6516 8.05661 19.6382 8.01231 19.6207 7.96942C19.6031 7.92723 19.5813 7.88645 19.556 7.84848C19.5307 7.80981 19.5011 7.77395 19.4688 7.74161C19.4364 7.70926 19.4006 7.67973 19.3619 7.65372C19.3239 7.6284 19.2832 7.60731 19.2403 7.58973C19.1981 7.57215 19.1539 7.55809 19.1088 7.54895C19.0181 7.53137 18.9246 7.53137 18.8339 7.54895C18.7896 7.55809 18.7453 7.57215 18.7025 7.58973C18.6602 7.60731 18.6194 7.6284 18.5814 7.65372C18.5428 7.67973 18.5069 7.70926 18.4746 7.74161C18.4422 7.77395 18.4127 7.80981 18.3867 7.84848C18.3614 7.88645 18.3396 7.92723 18.322 7.96942C18.3044 8.01231 18.2911 8.05661 18.2819 8.1009C18.2728 8.14661 18.2686 8.19301 18.2686 8.23872C18.2686 8.42364 18.3438 8.60504 18.4746 8.73582C18.6054 8.8666 18.7868 8.94184 18.9717 8.94184C19.0174 8.94184 19.0639 8.93692 19.1088 8.92778C19.1539 8.91864 19.1982 8.90528 19.2403 8.8877C19.2832 8.87012 19.3239 8.84832 19.3619 8.82301C19.4006 8.7977 19.4364 8.76817 19.4688 8.73582C19.5011 8.70348 19.5307 8.66762 19.556 8.62895C19.5813 8.59098 19.6031 8.5502 19.6207 8.50731C19.6382 8.46512 19.6516 8.42082 19.6607 8.37582C19.6699 8.33082 19.6747 8.28442 19.6747 8.23872C19.6747 8.19301 19.6699 8.14661 19.6607 8.1009Z" fill="#F6C945"/>
<path d="M6.83893 13.1685L6.83872 13.0614C6.83879 12.5072 7.28964 12.0564 7.84377 12.0564C7.85368 12.0564 7.8636 12.0562 7.87351 12.0558L10.0152 11.9651C11.2659 11.9563 12.2807 10.9362 12.2807 9.68342C12.2807 8.42525 11.2571 7.40172 9.99898 7.40172H5.21373C4.73104 7.40172 4.33827 7.00895 4.33827 6.52619C4.33827 6.29261 4.43038 6.0733 4.59759 5.9087C4.75797 5.75071 4.96764 5.66423 5.18913 5.66423C5.19728 5.66423 5.20558 5.66444 5.21373 5.66444L9.40063 5.6643C10.9623 5.6643 12.2327 4.39375 12.2327 2.83211C12.2327 1.27048 10.9622 0 9.40056 0H4.63774C4.24947 0 3.93461 0.314789 3.93461 0.703124C3.93461 1.09146 4.24947 1.40625 4.63774 1.40625H9.40056C10.1868 1.40625 10.8264 2.04588 10.8264 2.83211C10.8264 3.61835 10.1868 4.25798 9.40063 4.25805L5.21873 4.25819C4.61643 4.24989 4.04395 4.48031 3.6111 4.90647C3.1732 5.33763 2.93203 5.91278 2.93203 6.52626C2.93203 7.78443 3.95563 8.80803 5.21373 8.80803H9.99891C10.4816 8.80803 10.8744 9.20073 10.8744 9.68349C10.8744 10.1663 10.4816 10.559 9.99891 10.559C9.989 10.559 9.97909 10.5592 9.96917 10.5597L7.82767 10.6503C6.50544 10.6589 5.43255 11.7372 5.43255 13.0628L5.43276 13.169C2.3793 13.5195 0 16.1195 0 19.2654V24.9005C0 28.2846 2.75315 31.0377 6.13722 31.0377C9.52128 31.0377 12.2744 28.2846 12.2744 24.9005V19.2654C12.2744 16.1186 9.89373 13.5178 6.83893 13.1685ZM1.40625 19.2654C1.40625 16.8955 3.15759 14.9271 5.43409 14.5865V20.3213H1.40625V19.2654ZM10.8682 24.9005C10.8682 27.5092 8.74588 29.6315 6.13722 29.6315C3.52856 29.6315 1.40625 27.5092 1.40625 24.9005V21.7277H10.8682V24.9005ZM10.8682 20.3213H6.84034V14.5865C9.11685 14.9271 10.8682 16.8955 10.8682 19.2654V20.3213Z" fill="#F6C945"/>
<path d="M2.61983 0.565495C2.61069 0.521198 2.59733 0.476901 2.57975 0.43401C2.56217 0.391823 2.54037 0.351042 2.51506 0.313073C2.48982 0.274402 2.46029 0.238542 2.42795 0.206198C2.29716 0.0754174 2.11576 0.000183105 1.93084 0.000183105C1.74592 0.000183105 1.56451 0.0754174 1.43373 0.206198C1.40138 0.238542 1.37185 0.274402 1.34654 0.313073C1.3206 0.351042 1.29943 0.391823 1.28185 0.43401C1.26357 0.476901 1.25028 0.521198 1.24107 0.565495C1.23193 0.611198 1.22778 0.657604 1.22778 0.703307C1.22778 0.74901 1.232 0.795416 1.24107 0.840416C1.25021 0.885416 1.26357 0.929713 1.28178 0.9719C1.29936 1.01479 1.32053 1.05557 1.34647 1.09354C1.37178 1.13221 1.40131 1.16807 1.43366 1.20042C1.466 1.23276 1.50186 1.26229 1.5406 1.2876C1.57857 1.31292 1.61935 1.33471 1.66154 1.35229C1.70443 1.36987 1.74873 1.38323 1.79373 1.39237C1.83873 1.40151 1.88513 1.40643 1.93084 1.40643C2.11576 1.40643 2.29716 1.3312 2.42795 1.20042C2.46029 1.16807 2.48982 1.13221 2.51506 1.09354C2.54037 1.05557 2.56217 1.01479 2.57975 0.9719C2.59733 0.929713 2.61069 0.885416 2.61983 0.840416C2.62897 0.795416 2.63389 0.74901 2.63389 0.703307C2.63389 0.657604 2.62897 0.611198 2.61983 0.565495Z" fill="#F6C945"/>
<path d="M35.9948 7.01584C35.9171 5.35668 35.0813 4.5355 34.4096 3.87569C33.683 3.16174 33.2444 2.73079 33.6586 1.31843C33.8461 0.679004 33.5878 0.343263 33.4171 0.200036C33.2047 0.0218646 32.8256 -0.128182 32.2252 0.169029C31.4472 0.5542 30.2663 1.68658 29.3535 2.9226C28.5154 4.05752 27.5327 5.75697 27.61 7.40846C27.6679 8.64343 28.1915 9.77581 29.0463 10.5723C28.6238 11.1424 28.3735 11.8473 28.3735 12.6097C28.3735 13.0934 28.472 13.5544 28.6513 13.9729V27.7136C28.6513 29.3859 30.0119 30.7465 31.6843 30.7465C33.3566 30.7465 34.7172 29.3859 34.7172 27.7136V14.427C35.045 13.899 35.2322 13.2759 35.2322 12.6097C35.2323 11.8564 34.9876 11.1596 34.5744 10.5933C35.5279 9.70824 36.0597 8.40261 35.9948 7.01584ZM33.3109 27.7135C33.311 28.6105 32.5813 29.3402 31.6843 29.3402C30.7874 29.3402 30.0577 28.6105 30.0577 27.7135V15.5664C30.4228 15.7803 30.8333 15.9302 31.2764 15.9986C31.3119 16.0041 31.3477 16.0068 31.3836 16.0068H32.2221C32.2581 16.0068 32.2939 16.0041 32.3294 15.9986C32.3757 15.9914 32.4218 15.9831 32.4677 15.9741C32.4971 15.9684 32.526 15.9618 32.555 15.9554C32.5675 15.9525 32.5801 15.9499 32.5926 15.9469C32.845 15.888 33.0854 15.8023 33.3109 15.6931V27.7135ZM32.7533 14.3945C32.7503 14.396 32.7474 14.3975 32.7445 14.3991C32.7242 14.4098 32.7038 14.4201 32.6831 14.4302C32.6733 14.435 32.6635 14.4396 32.6536 14.4443C32.6378 14.4517 32.622 14.4588 32.6061 14.4658C32.5911 14.4723 32.576 14.4786 32.5609 14.4848C32.5486 14.4898 32.5364 14.4948 32.524 14.4996C32.5052 14.5069 32.4862 14.5136 32.4673 14.5203C32.4574 14.5237 32.4476 14.5273 32.4377 14.5306C32.4163 14.5377 32.3947 14.5443 32.373 14.5507C32.3648 14.5532 32.3567 14.5558 32.3484 14.5582C32.3247 14.5649 32.3009 14.5708 32.277 14.5766C32.2702 14.5782 32.2636 14.5801 32.2569 14.5817C32.2262 14.5888 32.1953 14.5952 32.1642 14.6008H31.4419C31.4412 14.6006 31.4405 14.6005 31.4398 14.6004C31.4058 14.5943 31.3723 14.5869 31.3389 14.5791C31.3255 14.5759 31.3123 14.5725 31.299 14.569C31.2791 14.5639 31.2593 14.5585 31.2396 14.5527C31.223 14.5478 31.2063 14.5431 31.1899 14.5378C31.1774 14.5339 31.1651 14.5294 31.1528 14.5252C30.3505 14.2507 29.7799 13.4807 29.7799 12.6098C29.7799 11.9577 30.0903 11.377 30.5708 11.0068C30.5893 10.9925 30.6081 10.9786 30.627 10.9651C30.6593 10.9419 30.6924 10.9196 30.7261 10.8983C30.7409 10.8889 30.7557 10.8796 30.7707 10.8707C30.8173 10.8429 30.865 10.8169 30.914 10.7929C30.9188 10.7905 30.9235 10.788 30.9283 10.7856C30.9567 10.772 30.9854 10.759 31.0145 10.7466C31.0192 10.7446 31.0241 10.7428 31.0289 10.7409C31.0794 10.7198 31.1309 10.701 31.1834 10.684C31.1996 10.6788 31.2158 10.6739 31.2322 10.6691C31.2677 10.6587 31.3037 10.6492 31.34 10.6407C31.3677 10.6342 31.3956 10.6281 31.4236 10.6228C31.4427 10.6191 31.4617 10.6156 31.4809 10.6125C31.5249 10.6056 31.5693 10.5998 31.6141 10.5957C31.6262 10.5946 31.6384 10.5938 31.6506 10.5929C31.7011 10.5892 31.7519 10.5866 31.8032 10.5866C31.8552 10.5866 31.9066 10.5893 31.9578 10.5931C31.9699 10.594 31.982 10.5947 31.9941 10.5959C32.0389 10.6 32.0834 10.6059 32.1274 10.613C32.1473 10.6162 32.1671 10.6198 32.1869 10.6236C32.2151 10.6289 32.2432 10.6352 32.2711 10.6419C32.3078 10.6506 32.3441 10.6602 32.38 10.6709C32.3949 10.6753 32.4098 10.68 32.4246 10.6847C32.4751 10.7011 32.5246 10.7193 32.5732 10.7393C32.5804 10.7423 32.5876 10.7451 32.5947 10.7481C32.68 10.7844 32.7621 10.8266 32.8408 10.8739C32.8583 10.8844 32.8754 10.8953 32.8926 10.9064C32.9244 10.9268 32.9555 10.9479 32.986 10.97C33.0073 10.9855 33.0284 11.0014 33.0492 11.0177C33.5217 11.3884 33.8262 11.964 33.8262 12.6098C33.8262 13.3677 33.3942 14.0495 32.7533 14.3945ZM33.5261 9.64475C33.5108 9.63589 33.4949 9.62837 33.4795 9.61972C33.4428 9.59905 33.4056 9.57915 33.368 9.55981C33.3488 9.54997 33.3298 9.53977 33.3104 9.53028C33.1851 9.46876 33.0556 9.41504 32.9224 9.36891C32.915 9.36638 32.9077 9.36392 32.9003 9.36139C32.8337 9.33882 32.7662 9.31794 32.6977 9.29945C32.6975 9.29938 32.6972 9.29931 32.6968 9.29916C32.5582 9.26169 32.4163 9.23293 32.2714 9.21303C32.2581 9.2112 32.2449 9.20966 32.2316 9.20797C32.1757 9.20094 32.1194 9.19531 32.0626 9.19109C32.0457 9.18983 32.0288 9.18828 32.0118 9.18723C31.9427 9.18308 31.8731 9.18027 31.8029 9.18027C31.7335 9.18027 31.6646 9.18301 31.5962 9.18709C31.5798 9.18807 31.5635 9.18962 31.5471 9.19081C31.4909 9.19496 31.4351 9.20045 31.3797 9.20734C31.3667 9.20895 31.3537 9.2105 31.3407 9.21233C31.1261 9.24137 30.9179 9.29037 30.7176 9.35738C30.7119 9.35928 30.7063 9.36118 30.7007 9.36315C30.6372 9.38473 30.5745 9.40794 30.5128 9.43311C30.5077 9.43522 30.5024 9.43712 30.4973 9.43923C30.4329 9.46587 30.3693 9.49407 30.3069 9.52445C30.2933 9.53105 30.2801 9.53837 30.2666 9.54512C30.2239 9.56656 30.1817 9.58871 30.1401 9.61191C30.1279 9.61866 30.1152 9.6245 30.1031 9.63139C29.4566 9.0812 29.0575 8.25432 29.0148 7.34272C28.9675 6.33472 29.5584 4.95512 30.6359 3.55766C31.176 2.85721 31.6963 2.32839 32.1081 1.96903C31.9915 3.47111 32.7735 4.23955 33.4241 4.87876C34.0219 5.46608 34.5382 5.97325 34.5901 7.08158C34.6375 8.09478 34.2371 9.03992 33.5261 9.64475Z" fill="#F6C945"/>
</svg>
