<svg width="14" height="13" viewBox="0 0 14 13" fill="none" xmlns="http://www.w3.org/2000/svg">
<path d="M6.11991 11.4417V12.4472H3.31547C3.30994 12.4447 3.30271 12.4414 3.29385 12.4373C3.27051 12.4264 3.23593 12.4096 3.19171 12.3868C3.10326 12.341 2.97632 12.2706 2.8237 12.1728C2.51839 11.9769 2.11084 11.6714 1.70324 11.233C0.898262 10.3672 0.0912206 8.98178 0.0729056 6.89385H9.59147C9.58486 7.26135 9.52839 7.60876 9.43747 7.94001L9.43745 7.94013L9.43742 7.94022L9.43732 7.94056L9.43732 7.94061L9.43682 7.94223L9.43346 7.95299C9.43034 7.96276 9.42548 7.97748 9.41879 7.99663L9.38506 8.09316H9.48732H10.6541C10.9492 8.09316 11.189 7.85272 11.189 7.55725V6.30651V6.23394L11.1164 6.23392L10.0965 6.2337V0.197104L13.7978 0.197301L13.0452 6.23435L12.0411 6.23413L11.9685 6.23411V6.30672V7.55722C11.9685 8.28373 11.3787 8.87467 10.6541 8.87467H9.0233H8.98366L8.96223 8.90802C8.55597 9.54027 7.85252 10.3236 6.70761 10.7604C6.64779 10.7831 6.5861 10.8009 6.52126 10.8196C6.50234 10.8251 6.48316 10.8306 6.46367 10.8364L6.42541 10.8361L6.40494 10.8755L6.12809 11.4082L6.11991 11.424V11.4417Z" fill="#F6C945" stroke="white" stroke-width="0.145176"/>
</svg>
