<svg width="16" height="16" viewBox="0 0 16 16" fill="none" xmlns="http://www.w3.org/2000/svg">
<path d="M1.3807 2.93841L0.841414 3.47928L0.102515 2.73836L2.05685 0.778679L4.01108 2.73836L3.27228 3.47928L2.67346 2.87882L2.54948 2.75449V2.93008V5.77668V5.95227L2.67346 5.82794L6.59167 1.8989L6.71517 1.77506H6.54027H4.93838L3.89321 0.727129H13.5712C14.4483 0.727129 15.1624 1.44288 15.1624 2.32297V11.9973L14.1177 10.9497V9.40298V9.2274L13.9937 9.35173L10.1053 13.2508L9.98178 13.3746H10.1567H12.9955H13.1704L13.0469 13.2508L12.4478 12.65L13.1866 11.9091L15.1409 13.8688L13.1866 15.8285L12.4478 15.0876L12.9874 14.5465L13.1109 14.4227H12.936H3.09598C2.21878 14.4227 1.50469 13.7069 1.50469 12.8268V2.98967V2.81406L1.3807 2.93841ZM8.47385 13.3746H8.50397L8.52525 13.3533L14.0965 7.7668L14.1177 7.74555V7.71554V6.04723V5.87165L13.9937 5.99597L6.75857 13.2508L6.63506 13.3746H6.80997H8.47385ZM2.57067 10.7238L2.54948 10.7451V10.7751V12.4583V12.6339L2.67346 12.5096L13.2551 1.89902L13.3786 1.77517H13.2037H11.5251H11.4949L11.4737 1.7965L2.57067 10.7238ZM14.1177 2.69148V2.5159L13.9937 2.64022L3.41197 13.2508L3.28846 13.3746H3.46337H5.12725H5.15737L5.17864 13.3533L14.0965 4.41105L14.1177 4.3898V4.35979V2.69148ZM8.22299 1.77517H8.19287L8.1716 1.7965L2.57067 7.41275L2.54948 7.43399V7.464V9.08765V9.26324L2.67346 9.13891L9.89361 1.89902L10.0171 1.77517H9.84222H8.22299Z" fill="#F6C945" stroke="white" stroke-width="0.145176"/>
</svg>
