<svg width="17" height="11" viewBox="0 0 17 11" fill="none" xmlns="http://www.w3.org/2000/svg">
<path d="M3.37077 2.16173C2.51107 2.16173 1.80764 2.84328 1.76964 3.69523H1.76799V3.76585H1.53011V2.34305C1.53011 1.45504 2.25106 0.732744 3.13675 0.732744H13.0296C13.9153 0.732744 14.6363 1.45504 14.6363 2.34305V3.76585H14.3984C14.3973 2.88126 13.679 2.16173 12.7957 2.16173H9.3608C8.83945 2.16173 8.37592 2.41258 8.08321 2.79953C7.79053 2.41261 7.32697 2.16173 6.80562 2.16173H3.37077Z" fill="#F6C945" stroke="white" stroke-width="0.145176"/>
<path d="M1.01345 9.51281L0.979236 9.60959L0.662927 10.5043L0.662925 10.5043C0.610332 10.653 0.688081 10.8161 0.836164 10.8687L1.01345 9.51281ZM1.01345 9.51281H0.910799M1.01345 9.51281H0.910799M0.910799 9.51281H0.643096C0.32873 9.51281 0.0725879 9.25634 0.0725879 8.9409V5.19943C0.0725879 4.88399 0.32873 4.62752 0.643096 4.62752H15.523C15.8374 4.62752 16.0935 4.88399 16.0935 5.19943V8.9409C16.0935 9.25634 15.8374 9.51281 15.523 9.51281H15.2553H15.1526L15.1869 9.60959L15.5032 10.5043L15.5032 10.5043M0.910799 9.51281L15.5032 10.5043M1.26802 10.7192L1.19958 10.695L1.60045 9.56117L1.61756 9.51277H1.66888H14.4972H14.5485L14.5656 9.56117L14.9665 10.695C15.0079 10.8121 15.1176 10.8852 15.2348 10.8852C15.2662 10.8852 15.2983 10.8799 15.3299 10.8687L1.26802 10.7192ZM1.26802 10.7192L1.19958 10.695C1.1582 10.8121 1.04843 10.8852 0.931253 10.8852C0.89986 10.8852 0.867806 10.8799 0.8362 10.8687L1.26802 10.7192ZM15.5032 10.5043C15.5558 10.653 15.478 10.8161 15.3299 10.8687L15.5032 10.5043Z" fill="#F6C945" stroke="white" stroke-width="0.145176"/>
<path d="M13.5386 3.7663H8.61776C8.61882 3.35646 8.95194 3.02352 9.36076 3.02352H12.7956C13.2045 3.02352 13.5375 3.35645 13.5386 3.7663Z" fill="#F6C945" stroke="white" stroke-width="0.145176"/>
<path d="M7.54862 3.7663H2.62777C2.62885 3.35647 2.96193 3.02352 3.37077 3.02352H6.80562C7.21447 3.02352 7.54756 3.35645 7.54862 3.7663Z" fill="#F6C945" stroke="white" stroke-width="0.145176"/>
</svg>
